<?xml version="1.0" encoding="utf-8"?>
<!-- Generator: Adobe Illustrator 20.1.0, SVG Export Plug-In . SVG Version: 6.00 Build 0)  -->
<svg version="1.1" xmlns="http://www.w3.org/2000/svg" xmlns:xlink="http://www.w3.org/1999/xlink" x="0px" y="0px"
	 viewBox="0 0 4320 900" style="enable-background:new 0 0 4320 900;" xml:space="preserve">
<style type="text/css">
	.st0{fill:#30160F;}
	.st1{fill:#FFFFFF;}
	.st2{fill:#FFFD38;stroke:#000000;stroke-width:13.1204;stroke-linecap:round;stroke-linejoin:round;stroke-miterlimit:10;}
	.st3{fill:none;stroke:#FFFFFF;stroke-width:7.6682;stroke-linecap:round;stroke-linejoin:round;stroke-miterlimit:10;}
	.st4{fill:#F70D1B;}
	.st5{fill:#F09A26;}
	.st6{fill:#208AEE;}
	.st7{fill:#54D732;}
	.st8{fill:none;stroke:#FFFFFF;stroke-width:2.3211;stroke-linecap:round;stroke-linejoin:round;stroke-miterlimit:10;}
	.st9{display:none;}
	.st10{display:inline;}
	.st11{fill:#A06A7C;}
	.st12{fill:url(#SVGID_1_);}
	.st13{fill:url(#SVGID_2_);}
	.st14{fill:url(#SVGID_3_);}
	.st15{fill:url(#SVGID_4_);}
	.st16{fill:url(#SVGID_5_);}
	.st17{opacity:0.23;fill:#A22041;}
	.st18{fill:#D7003A;}
	.st19{fill:url(#SVGID_6_);}
	.st20{fill:url(#SVGID_7_);}
	.st21{fill:url(#SVGID_8_);}
	.st22{fill:url(#SVGID_9_);}
	.st23{fill:url(#SVGID_10_);}
	.st24{fill:url(#SVGID_11_);}
	.st25{fill:url(#SVGID_12_);}
	.st26{fill:url(#SVGID_13_);}
	.st27{fill:url(#SVGID_14_);}
	.st28{fill:url(#SVGID_15_);}
	.st29{fill:url(#SVGID_16_);}
	.st30{fill:url(#SVGID_17_);}
	.st31{fill:url(#SVGID_18_);}
	.st32{fill:url(#SVGID_19_);}
	.st33{fill:url(#SVGID_20_);}
	.st34{fill:url(#SVGID_21_);}
	.st35{fill:url(#SVGID_22_);}
	.st36{fill:url(#SVGID_23_);}
	.st37{fill:url(#SVGID_24_);}
	.st38{fill:url(#SVGID_25_);}
	.st39{fill:url(#SVGID_26_);}
	.st40{fill:url(#SVGID_27_);}
	.st41{fill:url(#SVGID_28_);}
	.st42{fill:url(#SVGID_29_);}
	.st43{fill:url(#SVGID_30_);}
	.st44{fill:url(#SVGID_31_);}
	.st45{fill:url(#SVGID_32_);}
	.st46{fill:url(#SVGID_33_);}
	.st47{fill:url(#SVGID_34_);}
	.st48{fill:url(#SVGID_35_);}
</style>
<g id="レイヤー_1">
	<path class="st0" d="M404.3,208c140.6,7.5,291.7,18.8,400.6,108c114.4,93.7,145.3,215.9,269,296.8
		c54.7,35.8,165.9,87.3,222.3,120.3C1378.9,781.5,1427,868.6,1497,934c70,65.3,204.5,95.6,236.8,88.8c9.1-8-91.6-27.8-146.1-48.4
		c-54.5-20.6-159.8-146.3-139.6-171.8c38.4-31.6,177.9,44.8,181.9,34.6c8.6-7.6-97.8-70.6-157.9-86.1
		c-218.3-56.4-457.9-225-519-404.1c185.7,92.8,393.6,140.9,601.3,138.8c144-1.4,298.2-24.3,423.8,46.2
		c62.8,35.3,111.6,90.9,170.7,132.2c104.9,73.3,235.2,97.4,355.9,140.1c147.1,52.1,283.6,134.1,398.6,239.5
		c107.5,98.6,290.7,212.3,369.7,197.5c30.5-9-175.6-36.3-211.6-132.8c70.5,4.6,200.6-25.6,217.9-38.7
		c11.8-14.2-106.5,11.6-172.6,17.4c-89.3,7.8-171.9-86.5-236.1-149c-99-96.3-161.9-128.7-294.1-171.5
		c145.8-46.3,237.4-62.4,383-15.5c55.2,17.8,110.9,44.5,168.5,37.4c105.4-13,186.4-50.7,238.9-86c73.9-49.7,167.2,27,300.5,56.2
		c180.1,39.5,405.7,43.3,589.9,32.6c27.1-52-431.3,9.3-622.6-77.9c-86.1-39.2-180.7-107.2-265.5-65.2c-19.5,9.6-35.7,24.6-53.7,36.9
		c-90.6,62.4-212,52.1-319.1,26.9c-107.1-25.2-215.5-63-324.3-47.2c-66.7,9.6-130.1,39.2-197.5,41.3
		c-144.8,4.6-260.3-113.9-355.5-223.1c-11.5-13.2-23.8-28.5-22.3-46c1.4-16.6,14.9-29.5,28.4-39.2c136.3-98.9,327.2-43.2,480.2,27.3
		c79.2,36.5,161.2,77.1,248.4,73.6c49.5-2,138.1-24.9,185-41c135.6-46.5,249.5-76,366.1-132.6c5-11.5-55.5,7.4-99.3,23.4
		c-269.1,98.7-484.8,108.7-535,89.7c-11.9-4.5-283.7-108.8-290.4-119.5c-21.8-34.5,54.4-91.1,95-95.2s185.2,28.2,223.6,42.2
		c89.2,32.4,178.7-18,170.5-25.5c-94.5,30.8-170.8-3.1-252.3-27.5c-34.2-10.2-68-23.1-103.6-26c-51.9-4.3-102.8,13-152.1,29.6
		c-207.4,70-420.1,134.1-638.9,140.8C1168.5,377.5,579.3-113.1-71.9-52.7l33.8,239.3C93.4,193.6,272.9,201,404.3,208z"/>
	<g>
		<polygon points="7560.9,542.4 7386.9,542.4 7386.9,385.1 7540.6,391.6 		"/>
	</g>
	<g>
		<path class="st1" d="M7551.1,576c-5.7,0-10.5-4.7-10.6-10.4l-2.5-134.8c-0.1-5.8,4.4-10.5,10.4-10.6l23.6-0.4
			c5.7,0,10.5,4.7,10.6,10.6l0.4,19.2c1.1-0.2,2.3-0.2,3.5-0.3l0.5,0c6.8,0,29.1,3.1,29.8,43l0.7,37.7c0.3,15.4-2.1,26.6-7.2,34.3
			c-4.8,7.1-11.7,10.9-20.1,11c-0.2,0-0.4,0-0.5,0c-3.4,0-6.8-0.6-9.9-1.8c-1.4,1.1-3.2,2-5.6,2L7551.1,576z"/>
		<path d="M7571.9,428.8c0.9,0,1.6,0.9,1.6,1.8l0.6,31.5c0,1.1,0.4,1.4,0.6,1.4c0,0,0,0,0,0c0.4,0,0.7-0.4,1.6-1.3
			c2.7-2.8,6.1-3.9,10.2-4c0.1,0,0.2,0,0.3,0c9.1,0,20.4,7.1,20.9,34.2l0.7,37.7c0.6,29.5-9.6,36-18.6,36.2c-0.1,0-0.3,0-0.4,0
			c-4,0-7.7-1.2-10.3-3c-1.1-0.9-1.6-1.2-2-1.2c0,0,0,0,0,0c-0.9,0-2.6,4.6-3.3,4.6l-22.7,0.4c0,0,0,0,0,0c-0.7,0-1.6-0.7-1.6-1.6
			l-2.5-134.8c0-0.9,0.7-1.5,1.6-1.5L7571.9,428.8C7571.9,428.8,7571.9,428.8,7571.9,428.8 M7579,538.9
			C7579,538.9,7579,538.9,7579,538.9c2.4,0,2.3-2.4,2.3-3.5l-0.8-45.2c0-1.8-0.8-3.4-2.4-3.4c0,0,0,0,0,0c-2,0-3.4,2-3.3,4.7
			l0.8,43.1c0,1.6,0.6,2.7,1.5,3.4C7577.4,538.6,7578.3,538.9,7579,538.9 M7571.9,410.9h-0.2l-0.2,0l-23.4,0.4
			c-4.7,0.1-9.2,1.8-12.6,4.9c-4.2,3.7-6.6,9.1-6.5,14.8l2.5,134.8c0.2,10.6,9,19.1,19.5,19.1h0.2l0.2,0l22.7-0.4
			c2.5,0,4.7-0.5,6.6-1.3c2.8,0.7,5.8,1,8.7,1c0.2,0,0.5,0,0.7,0c11.3-0.2,21-5.5,27.4-15c6.2-9.2,9.1-22.1,8.8-39.5l-0.7-37.7
			c-0.3-16.2-4-28.9-10.9-37.9c-5.9-7.6-14-12.3-23-13.6l-0.2-10.5C7591.3,419.6,7582.5,410.9,7571.9,410.9L7571.9,410.9z"/>
	</g>
	<polygon class="st2" points="7691.8,331.2 7729.5,407.7 7813.8,419.9 7752.8,479.4 7767.2,563.4 7691.8,523.8 7616.3,563.4 
		7630.7,479.4 7569.7,419.9 7654,407.7 	"/>
	<g>
		<line class="st3" x1="7691.8" y1="358" x2="7665.8" y2="411.2"/>
	</g>
	<g>
		<line class="st3" x1="7642.2" y1="489.5" x2="7631.8" y2="542.6"/>
	</g>
	<g>
		<path class="st1" d="M7480.9,577.4c-13.5,0-27.5-11.2-27.9-32.7l-0.3-13.3c-0.1-7.6,1.8-17.2,10.1-25.3c-3.9-0.1-8.7-2.6-9.6-9.3
			c-0.2-1.8-0.3-4.2-0.4-8.8c-0.2-9.7,3.4-18.7,10.1-25.5c7-7.2,16.7-11,27.9-11.3c0.4,0,0.7,0,1,0c11.4,0,21.2,3.5,28.4,10.1
			c6.9,6.3,10.8,15.1,11,24.6l0.8,42.4c3.4,1.6,5.9,5.2,5.9,9.2l0.2,11.2c0.1,6.5-2.4,13.4-6.9,18.9c-5.1,6.2-12,9.7-19.3,9.8
			c-0.3,0-0.6,0-0.9,0c-6.5,0-11.5-1.5-15.7-4.6c-3.3,2.4-7.9,4.5-14.1,4.7L7480.9,577.4z"/>
		<path d="M7491.9,460.1c19.3,0,30.2,12.1,30.4,25.9l0.9,48.8c0,1.2,0.4,1.4,2.6,1.4c0.5,0,1.2,0,1.9,0c0,0,0,0,0,0
			c0.7,0,1.3,0.7,1.3,1.4l0.2,11.2c0.2,8.8-7.4,19.4-17.5,19.6c-0.2,0-0.5,0-0.7,0c-7.8,0-11-2.6-13.7-6.6c-0.9-1.2-1.5-1.6-1.8-1.6
			c0,0,0,0,0,0c-0.2,0-0.9,0.4-1.9,1.8c-1.9,2.7-6.2,6.2-12.5,6.4c-0.1,0-0.2,0-0.3,0c-7.6,0-18.6-6.2-18.9-24l-0.3-13.3
			c-0.3-14.2,9.1-22,19-26.3c13-5.8,13.7-7.8,13.6-14.1c0-2.5-1.1-3.7-2.7-3.7c0,0,0,0-0.1,0c-2.9,0.1-2.9,1.1-2.7,9.4
			c0,0.9-0.7,1.5-1.6,1.5l-24-0.8c0,0,0,0,0,0c-1.2,0-1.2-1-1.4-9.3c-0.3-14.2,10.5-27.2,29.2-27.6
			C7491.3,460.1,7491.6,460.1,7491.9,460.1 M7492.3,542.4C7492.3,542.4,7492.4,542.4,7492.3,542.4c1.5,0,2.9-1,2.9-3.1l-0.3-17.5
			c0-0.7-0.4-1.3-1.1-1.4c-1.1,0-4.7,1.7-4.6,5.7l0.3,13.3C7489.5,541.5,7490.9,542.4,7492.3,542.4 M7491.9,442.2
			c-0.4,0-0.8,0-1.2,0c-13.4,0.3-25.6,5.2-34.1,13.9c-8.4,8.5-12.9,19.8-12.6,31.9c0.1,5,0.1,7.6,0.5,9.9c0.6,4.7,2.5,8.3,5,11
			c-3.8,6.6-5.7,14.2-5.5,22.5l0.3,13.3c0.3,15.9,6.7,25.6,12,30.9c6.7,6.7,15.8,10.6,24.9,10.6c0.2,0,0.4,0,0.6,0
			c4.9-0.1,9.6-1.2,13.9-3.2c4.5,2.1,9.8,3.2,15.7,3.2c0.3,0,0.7,0,1,0c9.8-0.2,19.3-4.9,26-13c5.9-7.1,9.2-16.1,9-24.8l-0.2-11.2
			c-0.1-5.4-2.4-10.2-6-13.7l-0.7-37.9c-0.2-12-5.1-23-13.9-31C7517.5,446.5,7505.5,442.2,7491.9,442.2L7491.9,442.2z"/>
	</g>
	<g>
		<path class="st1" d="M7377.7,579.4c-5.9,0-10.8-5-10.9-11.1l-2.4-130.3c-0.1-2.7,0.9-5.4,2.7-7.6c2.1-2.6,5.2-4.1,8.3-4.1
			l30.7-0.6c5.9,0,10.6,4.7,10.7,10.7l1.6,86.9l23.2-0.4c6,0,10.8,4.6,10.9,10.5l0.6,33.5c0.1,2.9-1,5.7-3.1,7.8
			c-2,2.1-4.8,3.3-7.7,3.3L7377.7,579.4z"/>
		<path d="M7406.1,434.7c1.1,0,1.8,0.9,1.8,1.9l1.8,94.6c0,0.7,0.6,1.2,1.1,1.2c0,0,0,0,0,0l30.8-0.6c0,0,0,0,0,0
			c1.2,0,1.9,0.9,2,1.8l0.6,33.5c0,1.1-0.9,2-1.9,2l-64.5,1.2c0,0,0,0,0,0c-1.1,0-2-1.1-2-2.3l-2.4-130.3c0-1.1,1-2.5,2.3-2.6
			L7406.1,434.7C7406,434.7,7406,434.7,7406.1,434.7 M7406.1,416.9h-0.2l-0.2,0l-30.4,0.6c-11,0.2-20.1,9.7-19.8,20.8l2.4,130.3
			c0.2,10.9,9.1,19.9,19.9,19.9h0.2l0.2,0l64.5-1.2c11-0.2,19.7-9.3,19.5-20.2l-0.6-33.5c-0.2-10.8-8.9-19.3-19.9-19.3h-0.2l-0.2,0
			l-14,0.3l-1.5-78C7425.5,425.4,7416.9,416.9,7406.1,416.9L7406.1,416.9z"/>
	</g>
	<g>
		<g>
			<path class="st4" d="M7367.7,427.5c-2.6,0-4.9-1.9-5.5-4.6l-10.9-59.2c-0.3-1.5,0-3.1,0.9-4.3c0.9-1.3,2.4-2,3.9-2l13.3-0.2
				c1.5,0,2.9,0.6,3.8,1.5c1-1,2.3-1.7,3.8-1.7l11.8-0.2c1.4,0,2.7,0.6,3.7,1.5c1-1,2.3-1.6,3.7-1.6c0,0,13.1-0.2,13.1-0.2
				c1.7,0,3.2,0.7,4.2,1.9c1,1.2,1.4,2.8,1.2,4.3l-8.7,59.6c-0.5,2.7-2.7,4.6-5.3,4.7c0,0-12.9,0.2-12.9,0.2c-1.4,0-2.7-0.5-3.7-1.4
				c-1,0.9-2.2,1.5-3.6,1.5L7367.7,427.5z M7388,402.3L7388,402.3z"/>
			<path d="M7409.6,361c0.4,0,0.8,0.4,0.7,0.9l-8.6,59.5c-0.1,0.5-0.4,0.8-0.8,0.8l-12.9,0.2c0,0,0,0,0,0c-0.4,0-0.8-0.4-0.9-0.9
				l-2.5-18.8c-0.2-1.7-0.4-2.1-0.6-2.1c0,0,0,0,0,0c-0.2,0-0.4,0.4-0.6,2.1l-1.9,19c-0.1,0.5-0.4,0.8-0.8,0.8l-12.9,0.2
				c0,0,0,0,0,0c-0.4,0-0.8-0.4-0.9-0.9l-10.9-59.2c-0.1-0.4,0.1-0.7,0.4-0.7l13.2-0.2c0,0,0,0,0,0c0.5,0,0.8,0.3,0.8,0.7l3,17.1
				c0.1,0.6,0.3,0.9,0.4,0.9c0,0,0,0,0,0c0.1,0,0.3-0.2,0.4-0.9l2.3-17.1c0.1-0.5,0.5-0.8,0.8-0.8l11.7-0.2c0,0,0,0,0,0
				c0.4,0,0.7,0.3,0.8,0.7l2.8,17.1c0.1,0.6,0.3,0.9,0.4,0.9c0,0,0,0,0,0c0.1,0,0.3-0.3,0.4-0.9l2.3-17.1c0.1-0.5,0.5-0.8,0.8-0.8
				L7409.6,361C7409.6,361,7409.6,361,7409.6,361 M7409.6,351.7L7409.6,351.7l-0.2,0l-13.1,0.2c-1.3,0-2.6,0.3-3.7,0.8
				c-1.1-0.4-2.3-0.7-3.6-0.7h-0.1l-0.1,0l-11.7,0.2c-1.3,0-2.6,0.3-3.8,0.8c-1.2-0.4-2.4-0.7-3.7-0.7h-0.1l-0.1,0l-13.2,0.2
				c-3,0.1-5.8,1.5-7.6,3.9c-1.7,2.3-2.3,5.2-1.7,8l10.8,59l0,0.2l0,0.2c1,4.8,5.2,8.2,10,8.2h0.1l0.1,0l12.9-0.2
				c1.3,0,2.5-0.3,3.7-0.8c1.1,0.4,2.3,0.6,3.5,0.6h0.1l0.1,0l12.9-0.2c4.9-0.1,8.9-3.6,9.8-8.5l0-0.2l0-0.2l8.6-59.4
				c0.4-2.9-0.4-5.8-2.2-8C7415.3,353,7412.5,351.7,7409.6,351.7L7409.6,351.7z"/>
		</g>
		<g>
			<path class="st5" d="M7437.3,426.1c-12.9,0-21.4-9.2-21.7-23.6l-0.5-25.2c-0.2-8.7,3.8-13.8,7.1-16.5c3.8-3.1,9-4.9,14.6-5l0.5,0
				c12.9,0,22.4,9.7,22.7,23l0.1,6.2c0,1.5-0.5,2.9-1.6,4c-1,1.1-2.4,1.7-3.9,1.7l-13,0.2l0,0.6l13.2,0.5l0.3,0
				c2.9,0.4,4.9,2.7,5,5.6l0.1,6.5c0.3,13.5-8.2,21.7-22.5,22L7437.3,426.1z"/>
			<path d="M7437.4,360.4c11.2,0,17.9,8.6,18,18.5l0.1,6.2c0,0.5-0.4,0.9-0.9,0.9l-17,0.3c-0.4,0-0.6,0.3-0.6,0.8l0.3,16
				c0,1.6,0.7,2.2,1.6,2.2c0,0,0,0,0,0c0.7,0,1.6-0.6,1.6-2.2l-0.1-6.2c0-0.4,0.3-0.8,0.9-0.8l13.1,0.5c0.6,0.1,1,0.5,1,1.1l0.1,6.5
				c0.2,13-8.6,17-18,17.2c-0.1,0-0.3,0-0.4,0c-10.6,0-16.8-7.6-17-19l-0.5-25.2c-0.2-12,8.9-16.6,17.2-16.8
				C7437.1,360.4,7437.2,360.4,7437.4,360.4 M7437.5,380.9C7437.5,380.9,7437.5,380.9,7437.5,380.9c2.4,0,2.7,0,2.6-0.6
				c-0.1-6.4-0.2-7.2-1.8-7.2c0,0-0.1,0-0.1,0c-0.8,0-1.5,0.6-1.5,2.2l0.1,5.1C7436.9,380.7,7437.2,380.9,7437.5,380.9
				 M7437.4,351.2v9.3V351.2L7437.4,351.2L7437.4,351.2c-0.2,0-0.4,0-0.6,0c-6.6,0.1-12.8,2.3-17.4,6c-5.9,4.8-9,11.9-8.8,20.2
				l0.5,25.2c0.3,16.8,10.9,28.1,26.3,28.1c0.2,0,0.4,0,0.6,0c17-0.3,27.4-10.5,27.1-26.7l-0.1-6.5c0-2.3-0.8-4.5-2.2-6.2
				c1.4-1.8,2.2-4,2.1-6.4l-0.1-6.2c-0.1-7.2-2.7-14-7.3-19C7452.4,354.2,7445.3,351.2,7437.4,351.2L7437.4,351.2z"/>
		</g>
		<g>
			<path class="st6" d="M7473,425.4c-3,0-5.5-2.4-5.6-5.5l-1.4-76.1c-0.1-3.1,2.3-5.5,5.5-5.6l13.3-0.2c3,0,5.5,2.5,5.6,5.6
				l0.2,11.3c0.8-0.1,1.5-0.2,2.4-0.2l0.3,0c3.7,0,16,1.7,16.4,23.9l0.4,21.3c0.2,8.6-1.2,14.9-4,19.1c-2.6,3.9-6.4,6-11,6.1l-0.3,0
				c-2,0-3.9-0.4-5.7-1c-0.7,0.7-1.7,1.2-3.1,1.2L7473,425.4z"/>
			<path d="M7484.8,342.7c0.5,0,0.9,0.5,0.9,1l0.3,17.8c0,0.6,0.2,0.8,0.3,0.8c0,0,0,0,0,0c0.2,0,0.4-0.2,0.9-0.7
				c1.5-1.6,3.4-2.2,5.8-2.2c0.1,0,0.1,0,0.2,0c5.2,0,11.5,4,11.8,19.3l0.4,21.2c0.3,16.7-5.4,20.3-10.5,20.4c-0.1,0-0.1,0-0.2,0
				c-2.3,0-4.3-0.7-5.8-1.7c-0.6-0.5-0.9-0.7-1.1-0.7c0,0,0,0,0,0c-0.5,0-1.5,2.6-1.9,2.6l-12.8,0.2c0,0,0,0,0,0
				c-0.4,0-0.9-0.4-0.9-0.9l-1.4-76.1c0-0.5,0.4-0.8,0.9-0.8L7484.8,342.7C7484.8,342.7,7484.8,342.7,7484.8,342.7 M7488.7,404.9
				C7488.8,404.9,7488.8,404.9,7488.7,404.9c1.3,0,1.3-1.3,1.3-2l-0.5-25.5c0-1-0.4-1.9-1.3-1.9c0,0,0,0,0,0c-1.1,0-1.9,1.2-1.9,2.7
				l0.5,24.3c0,0.9,0.3,1.5,0.8,1.9C7487.8,404.7,7488.3,404.9,7488.7,404.9 M7484.8,333.4L7484.8,333.4l-0.2,0l-13.2,0.2
				c-2.4,0-4.8,0.9-6.6,2.5c-2.2,2-3.5,4.8-3.4,7.8l1.4,76c0.1,5.5,4.7,10,10.2,10h0.1l0.1,0l12.8-0.2c1.4,0,2.6-0.3,3.6-0.8
				c1.6,0.4,3.3,0.6,5,0.6c0.1,0,0.3,0,0.4,0c6.1-0.1,11.4-3,14.8-8.1c3.4-5.1,5-12.2,4.8-21.8l-0.4-21.2c-0.2-8.9-2.2-16-6-20.9
				c-3.4-4.3-8-6.9-13.1-7.4l-0.1-6.6C7494.9,338,7490.3,333.4,7484.8,333.4L7484.8,333.4z"/>
		</g>
		<g>
			<path class="st7" d="M7520.2,439.7c-1.6,0-3.1-0.7-4.1-1.9c-1-1.2-1.4-2.8-1.2-4.5l4.2-25.5l-12.5-47.5l0-0.6
				c0-1,0.2-1.9,0.6-2.7c0.9-1.7,2.6-2.7,4.4-2.7l14.1-0.3c1.4,0,2.7,0.5,3.6,1.4c1.3-1.3,3-1.5,3.6-1.5l13.5-0.3
				c2.1,0,4.1,1.3,4.9,3.1l1.2,2.8l-1.1,1.2l-12.7,74.1l0,0.1c-0.6,2.6-2.8,4.4-5.3,4.4L7520.2,439.7z"/>
			<path d="M7546.5,358.3c0.4,0,0.7,0.3,0.6,0.4l-12.9,75.3c-0.1,0.4-0.4,0.8-0.9,0.8l-13,0.2c0,0,0,0,0,0c-0.5,0-0.8-0.4-0.7-0.9
				l4.2-25.7c0.1-0.5,0.1-1,0-1.5l-12.5-47.3c0-0.3,0.1-0.7,0.5-0.7l14-0.3c0,0,0,0,0,0c0.5,0,0.7,0.3,0.8,0.7l2.5,15.2
				c0.1,0.4,0.2,0.8,0.4,0.8c0,0,0,0,0,0c0.1,0,0.3-0.4,0.4-0.8l2.6-15.5c0.1-0.2,0.2-0.5,0.6-0.5L7546.5,358.3
				C7546.5,358.3,7546.5,358.3,7546.5,358.3 M7546.5,349L7546.5,349l-0.2,0l-13.4,0.3c-1.3,0-2.5,0.3-3.6,0.8
				c-1.1-0.4-2.3-0.6-3.5-0.6h-0.1l-0.1,0l-14,0.3c-3.6,0.1-6.8,2.1-8.5,5.2c-0.8,1.5-1.2,3.2-1.1,4.9l0,1.1l0.3,1.1l12.1,46
				l-4,24.6c-0.5,2.9,0.3,5.9,2.2,8.1c1.9,2.3,4.7,3.6,7.7,3.6h0.1l0.1,0l13-0.2c4.7-0.1,8.7-3.4,9.8-8l0.1-0.3l0-0.3l12.9-74.9
				c0.4-1.9,0.3-3.9-0.5-5.7C7554.1,351.4,7550.5,349,7546.5,349L7546.5,349z"/>
		</g>
		<line class="st8" x1="7355.4" y1="361.4" x2="7365.3" y2="414.5"/>
		<g>
			<line class="st8" x1="7421.1" y1="377.2" x2="7421.6" y2="402.4"/>
		</g>
		<g>
			<line class="st8" x1="7473" y1="414.4" x2="7471.7" y2="347.4"/>
		</g>
		<line class="st8" x1="7513.1" y1="362.4" x2="7523.8" y2="403.7"/>
		<g>
			<line class="st8" x1="7441.2" y1="375.8" x2="7441.3" y2="379.3"/>
		</g>
	</g>
</g>
<g id="レイヤー_2" class="st9">
	<g class="st10">
		<path class="st11" d="M232.9,190.5c2.8,3.5,2.3,7.2,0.6,11.5c-1.3,3.3-3.4,8.3-6.7,10.1c-3.6,2-6.5-1.1-6.8-4.6
			c-0.2-2.3,0.8-4.7,1.6-6.9c1.8-4.5,4.9-10.7,10.6-10.1C232.4,190.6,232.7,190.6,232.9,190.5z"/>
		<linearGradient id="SVGID_1_" gradientUnits="userSpaceOnUse" x1="256.5318" y1="201.8975" x2="364.5157" y2="137.7668">
			<stop  offset="0" style="stop-color:#EE827C"/>
			<stop  offset="0.3746" style="stop-color:#F19A97"/>
			<stop  offset="0.7478" style="stop-color:#F4ACAB"/>
			<stop  offset="1" style="stop-color:#F5B2B2"/>
		</linearGradient>
		<path class="st12" d="M359.7,184.9c3.6,9.7-1.3,20.7-9.7,26.4c-7.7,5.3-16.6,6.3-25.4,8.1c-25.3-14.8-59.5-19.7-86.2-17.8
			c0.6-1.9,1-3.9,1-5.9c0.2,0,0.3-0.1,0.5-0.3c6.2-6.4,12.8-10.1,21.5-11.5c0,0.1,0,0.3,0,0.4c0,1,0.5,2.1,1.5,2.5
			c4.8,2.1,11,2.3,14.2-2.6c2.7-4.2,1.2-10-3.8-11.3c-2.4-0.7-5.1,0.2-6.7,1.9c-0.4,0.1-0.8,0.2-1.1,0.5c-1.8,1.5-2.9,3.4-3.5,5.5
			c-8.6,0.6-17.3,5-22.6,11.8c-0.4-2.4-1.6-4.6-3.9-6.1c11.2-34.9,35.5-69.8,74.9-74.5c10.6-1.3,22.3-0.7,30.5,7.6
			c9.8,10.1,5.7,25.2,7.3,37.3C349.2,167.9,353,176.6,359.7,184.9z"/>
		<linearGradient id="SVGID_2_" gradientUnits="userSpaceOnUse" x1="244.5963" y1="226.0275" x2="338.2306" y2="306.5677">
			<stop  offset="0" style="stop-color:#EE827C"/>
			<stop  offset="0.3746" style="stop-color:#F19A97"/>
			<stop  offset="0.7478" style="stop-color:#F4ACAB"/>
			<stop  offset="1" style="stop-color:#F5B2B2"/>
		</linearGradient>
		<path class="st13" d="M344.6,243.7c10.4,20.8-11.5,29.4-20.5,42.5c-5.3,7.8-7.6,15.3-6.7,24.2c-5.8,16.6-31.3,15.5-44.9,8.6
			c-12.1-6-21.9-16-29-27.4c-13.9-22.2-16.6-48.7-19.7-74.1c2.4,0.2,4.6-0.7,6.4-2.3c0.4,9.3,5.4,18.5,13,23.8
			c-0.5,0.8-0.7,1.6-0.7,2.6c0,0.9,0.4,1.6,0.9,2.1c0.2,1.3,0.8,2.5,1.7,3.4c3,3,7.8,1.9,9.8-1.7c2-3.6,0.5-8.3-3.6-9.5
			c-1.7-0.5-3.7-0.2-5.4,0.6c-7.6-5.7-12-13.5-13-23.4c0-0.2-0.1-0.5-0.2-0.7c0.2-0.3,0.4-0.7,0.7-1c5.9,5.3,13.3,8.8,21,10.4
			c-0.4,0.7-0.4,1.5,0,2.1c0.7,1,1.6,1.8,2.6,2.3c0.7,0.4,1.3,0.7,2,0.6c1.6,0.2,3.2-0.1,4.6-1c3.3-2.1,4.1-6.8,2-10
			c-2.2-3.3-6.9-2.1-9.1,0.5c-0.6,0.7-1.1,1.5-1.4,2.4c-7.5-1.4-14.2-4.4-20.6-8.8c0,0-0.1,0-0.1,0c1-1.6,1.8-3.1,2.5-4.6
			c0.1-0.3,0.3-0.7,0.4-1c0.2,0.2,0.5,0.3,0.8,0.3c19.8,0.5,39.4,2.6,58.3,8.9c6.9,2.3,15.5,5.3,23.5,9.3c0.2,0.2,0.5,0.4,0.8,0.4
			C330.9,228.4,340.2,235,344.6,243.7z"/>
		<linearGradient id="SVGID_3_" gradientUnits="userSpaceOnUse" x1="222.384" y1="167.0493" x2="191.2612" y2="37.7413">
			<stop  offset="0" style="stop-color:#EE827C"/>
			<stop  offset="0.3746" style="stop-color:#F19A97"/>
			<stop  offset="0.7478" style="stop-color:#F4ACAB"/>
			<stop  offset="1" style="stop-color:#F5B2B2"/>
		</linearGradient>
		<path class="st14" d="M258.1,74.3c17.3,11,17.9,32.8,11.4,50.2c-19.2,15.2-33.1,38.3-37,61.6c-0.6,0.3-1,0.8-1.2,1.3
			c-1.4-0.3-2.7-0.1-4,0.3c-2.3-13.3-2.5-26.4-1.4-39.8c0.3-0.1,0.7-0.1,1-0.2c5.1-2,5.8-9.5,1.4-12.6c-4.6-3.3-12.4,0.4-11.3,6.4
			c0.1,0.7,0.4,1.1,0.8,1.5c0.7,2.5,2.8,4.4,5.4,5c-1.4,13.5-0.3,27,2.6,40.3c-0.8,0.4-1.5,0.9-2.2,1.4c-9.9-12.4-16-25.5-18.2-41.2
			c3.4-0.5,5.9-4.6,4.9-8.1c-1.5-5.1-8.4-6-11.9-2.6c-2,1.9-2.7,5.2-0.7,7.3c0.8,0.8,1.9,1.3,2.9,1.3c0.2,0.3,0.5,0.6,0.7,0.8
			c0.6,8.6,2.7,17,6.2,24.9c-7.8-7.4-17.1-13.5-26-19.2c-2.4-1.5-4.8-3-7.3-4.4c-20.9-15.8-49.5-42.2-23.7-66.4
			c19.9-18.6,44.5-4.2,67.3-7.7c4.8,0.5,8.2-0.8,13.2-2.5C240.7,68.8,249.3,68.6,258.1,74.3z"/>
		<linearGradient id="SVGID_4_" gradientUnits="userSpaceOnUse" x1="205.978" y1="240.5263" x2="185.1664" y2="343.8297">
			<stop  offset="0" style="stop-color:#EE827C"/>
			<stop  offset="0.3746" style="stop-color:#F19A97"/>
			<stop  offset="0.7478" style="stop-color:#F4ACAB"/>
			<stop  offset="1" style="stop-color:#F5B2B2"/>
		</linearGradient>
		<path class="st15" d="M246.3,304.2c2.1,25.3-26.3,34.1-44.7,21.3c-0.5-0.3-1-0.2-1.3,0.1c-3.8-1.6-7.9-2.1-12.7-2.5
			c-25.1-1.9-57.4-7.8-42.8-42.3c3.5-8.2,8.5-15.8,14.5-22.9c1-0.2,1.6-1,1.6-1.8c11-12.4,24.9-23,38.9-31.9
			c-7.7,6.3-13.9,14.1-16.3,23.6c-4.1,1-7.7,5.2-5.9,9.5c0.5,1.1,1.2,1.7,2.1,2c2.1,3.1,7,3.4,9.9,0.4c3.4-3.5,2.9-9.6-1.5-11.6
			c5-14.6,16.8-22.6,29.3-30.8c-8.1,10.4-12.8,24.1-11.9,37.3c-1.9,0.7-3.6,2-4.4,3.8c-1.1,2.2-1.2,5.2,0.8,6.9
			c1.1,1,2.4,1.3,3.7,1.2c0.5,0.2,1,0.3,1.6,0.3c2.6-0.1,4.7-2,5.8-4.2c0.5-1,1-2.1,1.2-3.2c0.4-1.8-0.6-3.2-2-4.2
			c-0.7-0.5-1.5-0.8-2.4-0.9c0.3-12.8,3-23.9,10-34.9C222.2,248.8,227.3,281.2,246.3,304.2z"/>
		<linearGradient id="SVGID_5_" gradientUnits="userSpaceOnUse" x1="198.4725" y1="202.5734" x2="85.2071" y2="196.3376">
			<stop  offset="0" style="stop-color:#EE827C"/>
			<stop  offset="0.3746" style="stop-color:#F19A97"/>
			<stop  offset="0.7478" style="stop-color:#F4ACAB"/>
			<stop  offset="1" style="stop-color:#F5B2B2"/>
		</linearGradient>
		<path class="st16" d="M219.4,194.3c-0.2,0.3-0.4,0.7-0.6,1c-10.8-10.9-26-19.2-41.2-22.2c0.2-1.1,0.3-2.1,0.1-3.3
			c-0.2-1.1-1.3-2.1-2.3-2.3c-3.6-0.8-7.3-1.5-10.8,0.2c-3,1.4-5,4.3-5.1,7.7c0,1.6,1.1,2.7,2.5,3.3c1.6,0.7,3.1,1.1,4.8,1.2
			c0.5,0,0.9,0,1.2-0.2c3.3,0.9,6.3-0.4,8.1-2.9c15.5,4.6,28.5,10.6,41.8,20.4c-0.4,0.8-0.7,1.6-1,2.4c-14.4-2.3-30-1.3-44.5,1.4
			c-0.1-0.2-0.2-0.5-0.3-0.7c-2.8-4.2-9.3-5.3-12.6-1.1c-3.3,4.2-1.5,11,3.7,12.5c1.1,0.3,2,0,2.7-0.6c0.6,0,1.2-0.1,1.8-0.2
			c2.9-0.7,4.9-3.1,5.4-5.7c14.4-2,28.5-2.6,43.1-3.3c-0.8,3.4-0.9,6.8,0.1,9.5c-0.3-0.1-0.7-0.1-1,0.1
			c-19.6,8.3-44.5,23.5-61.3,42.8c-16.2,1-36.4,3.7-49.3-6.2c-10.4-8-9.5-18.5-6.4-29.9c0.4-1.5,0.7-2.8,0.8-4.1
			c0.6,0.1,1.3-0.3,1.3-1c1.4-12.1-3.7-21.2-5.7-32.9c-4.9-28.2,21-40.8,45.9-37.8C168.3,146.1,205.8,169.6,219.4,194.3z"/>
		<path class="st17" d="M262.1,210c-21,11.6-30.6,37-41.2,58c-16.2-14.8-33.3-28.8-52.8-38.9c-3.2-1.7-6.7,2.4-4,5.1
			c17.4,17,36.4,32.3,53.9,49.2c3.1,3,8.3,2.4,10.4-1.3c13-22.5,23-43.5,41-62.5C274.3,214.5,268.2,206.6,262.1,210z"/>
		<path class="st17" d="M307.8,291.8c-24.2-7.8-47-14.5-72.8-10.5c-5.6,0.9-3.5,8.6,1.2,9.1c13.9,1.5,27.5,2.7,41.1,6
			c9,2.2,19.6,8.5,28.7,8.7C313.9,305.3,314.9,294.1,307.8,291.8z"/>
		<path class="st18" d="M361.9,184c4.4,7.7,2.4,16.9-3.1,24.2c-6.6,8.6-18.2,12.8-29.3,14.4c5.2,3.5,9.9,7.3,14,11.8
			c6.4,7,12.8,18.2,8.8,28c-2.4,5.9-9.3,10.1-13.7,14.3c-10.4,10-18.1,21.3-17.4,36.3c0,1-0.8,1.6-1.7,1.6
			c-4.7,21.3-41.9,14.3-56.5,4.6c-4.6-3-8.6-6.4-12.2-10.1c-1.1,21.7-24.7,31.3-43.2,23c-0.3,0.3-0.8,0.4-1.2,0.2
			c-17.4-11-40.4,0-58.2-12.5c-10-7-14.5-17.9-12.5-30c1.9-11.1,7.3-21.7,15-31.3c-16.4,1.2-35.5,2.9-48.6-7.1
			c-5.4-4.1-9.7-10-10.5-16.8c-1.3-10.4,6.7-18.8,5.7-29.2c0-0.3,0.1-0.4,0.2-0.6c-2.9-15.2-12.2-30.7-5.9-45.8
			c5.6-13.5,20.7-20.7,34.4-22.3c10.8-1.3,21.1,0.3,31,3.8c-15-12.6-25.9-29.6-18.2-49.6c14.1-36.7,56.7-16.5,83.8-20.6
			c0.7-0.1,1.3,0.2,1.6,0.7c7.5-1.7,14.7-6.3,23-5.2c7.4,1,14.6,4.6,20,9.8c12,11.6,13.5,28.8,9.3,44.1c10-6.6,21.2-11.1,33.1-12.5
			c13.5-1.7,29.5,0.8,37.6,13c3.7,5.6,4.4,12,4.8,18.5c1.2,17.6,0.7,29.2,10.2,44.9C361.8,183.8,361.8,183.9,361.9,184z M350,211.4
			c8.4-5.7,13.4-16.8,9.7-26.4c-6.7-8.3-10.4-17.1-11.8-27.9c-1.5-12.1,2.6-27.2-7.3-37.3c-8.1-8.3-19.9-8.9-30.5-7.6
			c-39.4,4.7-63.6,39.6-74.9,74.5c2.3,1.5,3.4,3.7,3.9,6.1c5.3-6.8,14-11.2,22.6-11.8c0.6-2.1,1.7-4.1,3.5-5.5
			c0.4-0.3,0.8-0.5,1.1-0.5c1.6-1.7,4.3-2.6,6.7-1.9c5.1,1.3,6.5,7.1,3.8,11.3c-3.2,4.9-9.4,4.8-14.2,2.6c-1-0.4-1.4-1.6-1.5-2.5
			c0-0.1,0-0.3,0-0.4c-8.6,1.4-15.3,5.2-21.5,11.5c-0.2,0.2-0.3,0.2-0.5,0.3c-0.1,2-0.5,4-1,5.9c26.7-2,60.9,2.9,86.2,17.8
			C333.4,217.7,342.2,216.7,350,211.4z M324.1,286.2c9-13.2,30.9-21.7,20.5-42.5c-4.4-8.7-13.6-15.3-23.7-20.3
			c-0.3,0-0.6-0.2-0.8-0.4c-8.1-4-16.6-6.9-23.5-9.3c-18.9-6.3-38.5-8.3-58.3-8.9c-0.3,0-0.6-0.1-0.8-0.3c-0.2,0.3-0.3,0.7-0.4,1
			c-0.7,1.4-1.5,3-2.5,4.6c0,0,0,0,0.1,0c6.4,4.4,13,7.4,20.6,8.8c0.3-0.8,0.8-1.6,1.4-2.4c2.2-2.6,6.9-3.9,9.1-0.5
			c2.1,3.2,1.4,7.9-2,10c-1.4,0.9-3.1,1.2-4.6,1c-0.7,0-1.3-0.2-2-0.6c-1-0.5-1.9-1.2-2.6-2.3c-0.5-0.7-0.4-1.5,0-2.1
			c-7.7-1.6-15.2-5.1-21-10.4c-0.3,0.3-0.5,0.7-0.7,1c0.1,0.2,0.2,0.4,0.2,0.7c1,9.9,5.4,17.7,13,23.4c1.7-0.8,3.7-1.1,5.4-0.6
			c4.1,1.2,5.6,5.9,3.6,9.5c-2,3.6-6.8,4.7-9.8,1.7c-0.9-0.9-1.5-2.1-1.7-3.4c-0.5-0.5-0.8-1.2-0.9-2.1c0-1,0.2-1.9,0.7-2.6
			c-7.6-5.4-12.6-14.5-13-23.8c-1.8,1.5-3.9,2.4-6.4,2.3c3,25.4,5.8,51.9,19.7,74.1c7.1,11.4,16.9,21.3,29,27.4
			c13.6,6.8,39.1,7.9,44.9-8.6C316.5,301.5,318.8,294,324.1,286.2z M269.6,124.5c6.5-17.4,5.8-39.2-11.4-50.2
			c-8.8-5.7-17.4-5.4-26.9-2.3c-5,1.7-8.5,3.1-13.2,2.5c-22.8,3.5-47.5-10.9-67.3,7.7c-25.8,24.2,2.8,50.6,23.7,66.4
			c2.5,1.4,4.9,2.8,7.3,4.4c8.9,5.6,18.1,11.8,26,19.2c-3.6-7.9-5.6-16.3-6.2-24.9c-0.3-0.2-0.5-0.5-0.7-0.8c-1.1,0-2.1-0.4-2.9-1.3
			c-2.1-2.1-1.3-5.5,0.7-7.3c3.5-3.4,10.5-2.5,11.9,2.6c1,3.4-1.5,7.5-4.9,8.1c2.2,15.6,8.3,28.8,18.2,41.2c0.7-0.5,1.5-1,2.2-1.4
			c-2.9-13.3-4-26.8-2.6-40.3c-2.5-0.6-4.7-2.5-5.4-5c-0.4-0.3-0.7-0.8-0.8-1.5c-1.1-6,6.7-9.6,11.3-6.4c4.4,3.1,3.7,10.6-1.4,12.6
			c-0.3,0.1-0.7,0.1-1,0.2c-1.1,13.4-1,26.5,1.4,39.8c1.3-0.4,2.6-0.6,4-0.3c0.2-0.6,0.6-1.1,1.2-1.3
			C236.5,162.8,250.3,139.7,269.6,124.5z M201.5,325.5c18.4,12.8,46.8,3.9,44.7-21.3c-19-23-24-55.3-26.7-84.8c-7,11-9.8,22-10,34.9
			c0.8,0.2,1.6,0.4,2.4,0.9c1.5,1,2.4,2.4,2,4.2c-0.2,1.1-0.7,2.2-1.2,3.2c-1.1,2.2-3.2,4.2-5.8,4.2c-0.6,0-1.1-0.1-1.6-0.3
			c-1.3,0.1-2.6-0.2-3.7-1.2c-2-1.7-1.9-4.7-0.8-6.9c0.9-1.8,2.6-3.1,4.4-3.8c-0.9-13.2,3.8-26.9,11.9-37.3
			c-12.6,8.2-24.4,16.3-29.3,30.8c4.4,1.9,4.9,8,1.5,11.6c-3,3-7.8,2.8-9.9-0.4c-0.9-0.3-1.6-0.9-2.1-2c-1.8-4.3,1.8-8.4,5.9-9.5
			c2.4-9.5,8.6-17.4,16.3-23.6c-13.9,8.8-27.9,19.4-38.9,31.9c0,0.8-0.5,1.7-1.6,1.8c-6,7.1-11.1,14.7-14.5,22.9
			c-14.6,34.5,17.7,40.4,42.8,42.3c4.9,0.4,9,0.9,12.7,2.5C200.6,325.3,201.1,325.2,201.5,325.5z M233.5,202c1.8-4.3,2.3-8-0.6-11.5
			c-0.2,0.1-0.5,0.2-0.8,0.2c-5.7-0.7-8.8,5.6-10.6,10.1c-0.8,2.1-1.8,4.6-1.6,6.9c0.3,3.5,3.2,6.6,6.8,4.6
			C230.1,210.3,232.1,205.3,233.5,202z M218.8,195.4c0.2-0.3,0.4-0.7,0.6-1c-13.7-24.7-51.1-48.2-78.8-51.7
			c-24.9-3.1-50.7,9.5-45.9,37.8c2,11.6,7.1,20.7,5.7,32.9c-0.1,0.8-0.7,1.1-1.3,1c-0.2,1.3-0.4,2.6-0.8,4.1
			c-3.1,11.4-4,21.9,6.4,29.9c12.9,9.9,33.1,7.2,49.3,6.2c16.8-19.3,41.7-34.5,61.3-42.8c0.3-0.2,0.7-0.2,1-0.1
			c-1-2.8-1-6.2-0.1-9.5c-14.6,0.7-28.7,1.3-43.1,3.3c-0.5,2.6-2.5,4.9-5.4,5.7c-0.6,0.2-1.2,0.2-1.8,0.2c-0.7,0.6-1.6,0.9-2.7,0.6
			c-5.2-1.6-7-8.3-3.7-12.5c3.3-4.2,9.8-3.2,12.6,1.1c0.2,0.2,0.2,0.4,0.3,0.7c14.5-2.7,30.1-3.7,44.5-1.4c0.3-0.8,0.6-1.6,1-2.4
			c-13.3-9.8-26.3-15.8-41.8-20.4c-1.8,2.4-4.8,3.8-8.1,2.9c-0.3,0.2-0.7,0.2-1.2,0.2c-1.7-0.2-3.2-0.6-4.8-1.2
			c-1.4-0.5-2.5-1.6-2.5-3.3c0-3.4,2.1-6.3,5.1-7.7c3.4-1.6,7.2-1,10.8-0.2c1,0.2,2.1,1.2,2.3,2.3c0.2,1.1,0.1,2.2-0.1,3.3
			C192.8,176.1,208.1,184.5,218.8,195.4z"/>
	</g>
	<g class="st10">
		<path class="st11" d="M1538.4,676.9c2.8,3.5,2.3,7.2,0.6,11.5c-1.3,3.3-3.4,8.3-6.7,10.1c-3.6,2-6.5-1.1-6.8-4.6
			c-0.2-2.3,0.8-4.7,1.6-6.9c1.8-4.5,4.9-10.7,10.6-10.1C1537.9,677.1,1538.2,677,1538.4,676.9z"/>
		<linearGradient id="SVGID_6_" gradientUnits="userSpaceOnUse" x1="1562.0726" y1="688.3453" x2="1670.0565" y2="624.2145">
			<stop  offset="0" style="stop-color:#EE827C"/>
			<stop  offset="0.3746" style="stop-color:#F19A97"/>
			<stop  offset="0.7478" style="stop-color:#F4ACAB"/>
			<stop  offset="1" style="stop-color:#F5B2B2"/>
		</linearGradient>
		<path class="st19" d="M1665.2,671.4c3.6,9.7-1.3,20.7-9.7,26.4c-7.7,5.3-16.6,6.3-25.4,8.1c-25.3-14.8-59.5-19.7-86.2-17.8
			c0.6-1.9,1-3.9,1-5.9c0.2,0,0.3-0.1,0.5-0.3c6.2-6.4,12.8-10.1,21.5-11.5c0,0.1,0,0.3,0,0.4c0,1,0.5,2.1,1.5,2.5
			c4.8,2.1,11,2.3,14.2-2.6c2.7-4.2,1.2-10-3.8-11.3c-2.4-0.7-5.1,0.2-6.7,1.9c-0.4,0.1-0.8,0.2-1.1,0.5c-1.8,1.5-2.9,3.4-3.5,5.5
			c-8.6,0.6-17.3,5-22.6,11.8c-0.4-2.4-1.6-4.6-3.9-6.1c11.2-34.9,35.5-69.8,74.9-74.5c10.6-1.3,22.3-0.7,30.5,7.6
			c9.8,10.1,5.7,25.2,7.3,37.3C1654.8,654.3,1658.6,663.1,1665.2,671.4z"/>
		<linearGradient id="SVGID_7_" gradientUnits="userSpaceOnUse" x1="1550.1372" y1="712.4752" x2="1643.7715" y2="793.0155">
			<stop  offset="0" style="stop-color:#EE827C"/>
			<stop  offset="0.3746" style="stop-color:#F19A97"/>
			<stop  offset="0.7478" style="stop-color:#F4ACAB"/>
			<stop  offset="1" style="stop-color:#F5B2B2"/>
		</linearGradient>
		<path class="st20" d="M1650.1,730.1c10.4,20.8-11.5,29.4-20.5,42.5c-5.3,7.8-7.6,15.3-6.7,24.2c-5.8,16.6-31.3,15.5-44.9,8.6
			c-12.1-6-21.9-16-29-27.4c-13.9-22.2-16.6-48.7-19.7-74.1c2.4,0.2,4.6-0.7,6.4-2.3c0.4,9.3,5.4,18.5,13,23.8
			c-0.5,0.8-0.7,1.6-0.7,2.6c0,0.9,0.4,1.6,0.9,2.1c0.2,1.3,0.8,2.5,1.7,3.4c3,3,7.8,1.9,9.8-1.7c2-3.6,0.5-8.3-3.6-9.5
			c-1.7-0.5-3.7-0.2-5.4,0.6c-7.6-5.7-12-13.5-13-23.4c0-0.2-0.1-0.5-0.2-0.7c0.2-0.3,0.4-0.7,0.7-1c5.9,5.3,13.3,8.8,21,10.4
			c-0.4,0.7-0.4,1.5,0,2.1c0.7,1,1.6,1.8,2.6,2.3c0.7,0.4,1.3,0.7,2,0.6c1.6,0.2,3.2-0.1,4.6-1c3.3-2.1,4.1-6.8,2-10
			c-2.2-3.3-6.9-2.1-9.1,0.5c-0.6,0.7-1.1,1.5-1.4,2.4c-7.5-1.4-14.2-4.4-20.6-8.8c0,0-0.1,0-0.1,0c1-1.6,1.8-3.1,2.5-4.6
			c0.1-0.3,0.3-0.7,0.4-1c0.2,0.2,0.5,0.3,0.8,0.3c19.8,0.5,39.4,2.6,58.3,8.9c6.9,2.3,15.5,5.3,23.5,9.3c0.2,0.2,0.5,0.4,0.8,0.4
			C1636.5,714.8,1645.7,721.4,1650.1,730.1z"/>
		<linearGradient id="SVGID_8_" gradientUnits="userSpaceOnUse" x1="1527.9248" y1="653.4971" x2="1496.802" y2="524.189">
			<stop  offset="0" style="stop-color:#EE827C"/>
			<stop  offset="0.3746" style="stop-color:#F19A97"/>
			<stop  offset="0.7478" style="stop-color:#F4ACAB"/>
			<stop  offset="1" style="stop-color:#F5B2B2"/>
		</linearGradient>
		<path class="st21" d="M1563.7,560.7c17.3,11,17.9,32.8,11.4,50.2c-19.2,15.2-33.1,38.3-37,61.6c-0.6,0.3-1,0.8-1.2,1.3
			c-1.4-0.3-2.7-0.1-4,0.3c-2.3-13.3-2.5-26.4-1.4-39.8c0.3-0.1,0.7-0.1,1-0.2c5.1-2,5.8-9.5,1.4-12.6c-4.6-3.3-12.4,0.4-11.3,6.4
			c0.1,0.7,0.4,1.1,0.8,1.5c0.7,2.5,2.8,4.4,5.4,5c-1.4,13.5-0.3,27,2.6,40.3c-0.8,0.4-1.5,0.9-2.2,1.4c-9.9-12.4-16-25.5-18.2-41.2
			c3.4-0.5,5.9-4.6,4.9-8.1c-1.5-5.1-8.4-6-11.9-2.6c-2,1.9-2.7,5.2-0.7,7.3c0.8,0.8,1.9,1.3,2.9,1.3c0.2,0.3,0.5,0.6,0.7,0.8
			c0.6,8.6,2.7,17,6.2,24.9c-7.8-7.4-17.1-13.5-26-19.2c-2.4-1.5-4.8-3-7.3-4.4c-20.9-15.8-49.5-42.2-23.7-66.4
			c19.9-18.6,44.5-4.2,67.3-7.7c4.8,0.5,8.2-0.8,13.2-2.5C1546.3,555.3,1554.8,555,1563.7,560.7z"/>
		<linearGradient id="SVGID_9_" gradientUnits="userSpaceOnUse" x1="1511.5188" y1="726.9741" x2="1490.7073" y2="830.2775">
			<stop  offset="0" style="stop-color:#EE827C"/>
			<stop  offset="0.3746" style="stop-color:#F19A97"/>
			<stop  offset="0.7478" style="stop-color:#F4ACAB"/>
			<stop  offset="1" style="stop-color:#F5B2B2"/>
		</linearGradient>
		<path class="st22" d="M1551.8,790.6c2.1,25.3-26.3,34.1-44.7,21.3c-0.5-0.3-1-0.2-1.3,0.1c-3.8-1.6-7.9-2.1-12.7-2.5
			c-25.1-1.9-57.4-7.8-42.8-42.3c3.5-8.2,8.5-15.8,14.5-22.9c1-0.2,1.6-1,1.6-1.8c11-12.4,24.9-23,38.9-31.9
			c-7.7,6.3-13.9,14.1-16.3,23.6c-4.1,1-7.7,5.2-5.9,9.5c0.5,1.1,1.2,1.7,2.1,2c2.1,3.1,7,3.4,9.9,0.4c3.4-3.5,2.9-9.6-1.5-11.6
			c5-14.6,16.8-22.6,29.3-30.8c-8.1,10.4-12.8,24.1-11.9,37.3c-1.9,0.7-3.6,2-4.4,3.8c-1.1,2.2-1.2,5.2,0.8,6.9
			c1.1,1,2.4,1.3,3.7,1.2c0.5,0.2,1,0.3,1.6,0.3c2.6-0.1,4.7-2,5.8-4.2c0.5-1,1-2.1,1.2-3.2c0.4-1.8-0.6-3.2-2-4.2
			c-0.7-0.5-1.5-0.8-2.4-0.9c0.3-12.8,3-23.9,10-34.9C1527.8,735.3,1532.8,767.7,1551.8,790.6z"/>
		<linearGradient id="SVGID_10_" gradientUnits="userSpaceOnUse" x1="1504.0133" y1="689.0212" x2="1390.7479" y2="682.7854">
			<stop  offset="0" style="stop-color:#EE827C"/>
			<stop  offset="0.3746" style="stop-color:#F19A97"/>
			<stop  offset="0.7478" style="stop-color:#F4ACAB"/>
			<stop  offset="1" style="stop-color:#F5B2B2"/>
		</linearGradient>
		<path class="st23" d="M1525,680.8c-0.2,0.3-0.4,0.7-0.6,1c-10.8-10.9-26-19.2-41.2-22.2c0.2-1.1,0.3-2.1,0.1-3.3
			c-0.2-1.1-1.3-2.1-2.3-2.3c-3.6-0.8-7.3-1.5-10.8,0.2c-3,1.4-5,4.3-5.1,7.7c0,1.6,1.1,2.7,2.5,3.3c1.6,0.7,3.1,1.1,4.8,1.2
			c0.5,0,0.9,0,1.2-0.2c3.3,0.9,6.3-0.4,8.1-2.9c15.5,4.6,28.5,10.6,41.8,20.4c-0.4,0.8-0.7,1.6-1,2.4c-14.4-2.3-30-1.3-44.5,1.4
			c-0.1-0.2-0.2-0.5-0.3-0.7c-2.8-4.2-9.3-5.3-12.6-1.1c-3.3,4.2-1.5,11,3.7,12.5c1.1,0.3,2,0,2.7-0.6c0.6,0,1.2-0.1,1.8-0.2
			c2.9-0.7,4.9-3.1,5.4-5.7c14.4-2,28.5-2.6,43.1-3.3c-0.8,3.4-0.9,6.8,0.1,9.5c-0.3-0.1-0.7-0.1-1,0.1
			c-19.6,8.3-44.5,23.5-61.3,42.8c-16.2,1-36.4,3.7-49.3-6.2c-10.4-8-9.5-18.5-6.4-29.9c0.4-1.5,0.7-2.8,0.8-4.1
			c0.6,0.1,1.3-0.3,1.3-1c1.4-12.1-3.7-21.2-5.7-32.9c-4.9-28.2,21-40.8,45.9-37.8C1473.8,632.6,1511.3,656.1,1525,680.8z"/>
		<path class="st17" d="M1567.6,696.4c-21,11.6-30.6,37-41.2,58c-16.2-14.8-33.3-28.8-52.8-38.9c-3.2-1.7-6.7,2.4-4,5.1
			c17.4,17,36.4,32.3,53.9,49.2c3.1,3,8.3,2.4,10.4-1.3c13-22.5,23-43.5,41-62.5C1579.8,701,1573.8,693.1,1567.6,696.4z"/>
		<path class="st17" d="M1613.4,778.3c-24.2-7.8-47-14.5-72.8-10.5c-5.6,0.9-3.5,8.6,1.2,9.1c13.9,1.5,27.5,2.7,41.1,6
			c9,2.2,19.6,8.5,28.7,8.7C1619.4,791.7,1620.5,780.6,1613.4,778.3z"/>
		<path class="st18" d="M1667.4,670.4c4.4,7.7,2.4,16.9-3.1,24.2c-6.6,8.6-18.2,12.8-29.3,14.4c5.2,3.5,9.9,7.3,14,11.8
			c6.4,7,12.8,18.2,8.8,28c-2.4,5.9-9.3,10.1-13.7,14.3c-10.4,10-18.1,21.3-17.4,36.3c0,1-0.8,1.6-1.7,1.6
			c-4.7,21.3-41.9,14.3-56.5,4.6c-4.6-3-8.6-6.4-12.2-10.1c-1.1,21.7-24.7,31.3-43.2,23c-0.3,0.3-0.8,0.4-1.2,0.2
			c-17.4-11-40.4,0-58.2-12.5c-10-7-14.5-17.9-12.5-30c1.9-11.1,7.3-21.7,15-31.3c-16.4,1.2-35.5,2.9-48.6-7.1
			c-5.4-4.1-9.7-10-10.5-16.8c-1.3-10.4,6.7-18.8,5.7-29.2c0-0.3,0.1-0.4,0.2-0.6c-2.9-15.2-12.2-30.7-5.9-45.8
			c5.6-13.5,20.7-20.7,34.4-22.3c10.8-1.3,21.1,0.3,31,3.8c-15-12.6-25.9-29.6-18.2-49.6c14.1-36.7,56.7-16.5,83.8-20.6
			c0.7-0.1,1.3,0.2,1.6,0.7c7.5-1.7,14.7-6.3,23-5.2c7.4,1,14.6,4.6,20,9.8c12,11.6,13.5,28.8,9.3,44.1c10-6.6,21.2-11.1,33.1-12.5
			c13.5-1.7,29.5,0.8,37.6,13c3.7,5.6,4.4,12,4.8,18.5c1.2,17.6,0.7,29.2,10.2,44.9C1667.4,670.2,1667.4,670.4,1667.4,670.4z
			 M1655.5,697.8c8.4-5.7,13.4-16.8,9.7-26.4c-6.7-8.3-10.4-17.1-11.8-27.9c-1.5-12.1,2.6-27.2-7.3-37.3c-8.1-8.3-19.9-8.9-30.5-7.6
			c-39.4,4.7-63.6,39.6-74.9,74.5c2.3,1.5,3.4,3.7,3.9,6.1c5.3-6.8,14-11.2,22.6-11.8c0.6-2.1,1.7-4.1,3.5-5.5
			c0.4-0.3,0.8-0.5,1.1-0.5c1.6-1.7,4.3-2.6,6.7-1.9c5.1,1.3,6.5,7.1,3.8,11.3c-3.2,4.9-9.4,4.8-14.2,2.6c-1-0.4-1.4-1.6-1.5-2.5
			c0-0.1,0-0.3,0-0.4c-8.6,1.4-15.3,5.2-21.5,11.5c-0.2,0.2-0.3,0.2-0.5,0.3c-0.1,2-0.5,4-1,5.9c26.7-2,60.9,2.9,86.2,17.8
			C1638.9,704.1,1647.8,703.1,1655.5,697.8z M1629.6,772.7c9-13.2,30.9-21.7,20.5-42.5c-4.4-8.7-13.6-15.3-23.7-20.3
			c-0.3,0-0.6-0.2-0.8-0.4c-8.1-4-16.6-6.9-23.5-9.3c-18.9-6.3-38.5-8.3-58.3-8.9c-0.3,0-0.6-0.1-0.8-0.3c-0.2,0.3-0.3,0.7-0.4,1
			c-0.7,1.4-1.5,3-2.5,4.6c0,0,0,0,0.1,0c6.4,4.4,13,7.4,20.6,8.8c0.3-0.8,0.8-1.6,1.4-2.4c2.2-2.6,6.9-3.9,9.1-0.5
			c2.1,3.2,1.4,7.9-2,10c-1.4,0.9-3.1,1.2-4.6,1c-0.7,0-1.3-0.2-2-0.6c-1-0.5-1.9-1.2-2.6-2.3c-0.5-0.7-0.4-1.5,0-2.1
			c-7.7-1.6-15.2-5.1-21-10.4c-0.3,0.3-0.5,0.7-0.7,1c0.1,0.2,0.2,0.4,0.2,0.7c1,9.9,5.4,17.7,13,23.4c1.7-0.8,3.7-1.1,5.4-0.6
			c4.1,1.2,5.6,5.9,3.6,9.5c-2,3.6-6.8,4.7-9.8,1.7c-0.9-0.9-1.5-2.1-1.7-3.4c-0.5-0.5-0.8-1.2-0.9-2.1c0-1,0.2-1.9,0.7-2.6
			c-7.6-5.4-12.6-14.5-13-23.8c-1.8,1.5-3.9,2.4-6.4,2.3c3,25.4,5.8,51.9,19.7,74.1c7.1,11.4,16.9,21.3,29,27.4
			c13.6,6.8,39.1,7.9,44.9-8.6C1622.1,788,1624.3,780.4,1629.6,772.7z M1575.1,610.9c6.5-17.4,5.8-39.2-11.4-50.2
			c-8.8-5.7-17.4-5.4-26.9-2.3c-5,1.7-8.5,3.1-13.2,2.5c-22.8,3.5-47.5-10.9-67.3,7.7c-25.8,24.2,2.8,50.6,23.7,66.4
			c2.5,1.4,4.9,2.8,7.3,4.4c8.9,5.6,18.1,11.8,26,19.2c-3.6-7.9-5.6-16.3-6.2-24.9c-0.3-0.2-0.5-0.5-0.7-0.8c-1.1,0-2.1-0.4-2.9-1.3
			c-2.1-2.1-1.3-5.5,0.7-7.3c3.5-3.4,10.5-2.5,11.9,2.6c1,3.4-1.5,7.5-4.9,8.1c2.2,15.6,8.3,28.8,18.2,41.2c0.7-0.5,1.5-1,2.2-1.4
			c-2.9-13.3-4-26.8-2.6-40.3c-2.5-0.6-4.7-2.5-5.4-5c-0.4-0.3-0.7-0.8-0.8-1.5c-1.1-6,6.7-9.6,11.3-6.4c4.4,3.1,3.7,10.6-1.4,12.6
			c-0.3,0.1-0.7,0.1-1,0.2c-1.1,13.4-1,26.5,1.4,39.8c1.3-0.4,2.6-0.6,4-0.3c0.2-0.6,0.6-1.1,1.2-1.3
			C1542.1,649.2,1555.9,626.1,1575.1,610.9z M1507.1,812c18.4,12.8,46.8,3.9,44.7-21.3c-19-23-24-55.3-26.7-84.8
			c-7,11-9.8,22-10,34.9c0.8,0.2,1.6,0.4,2.4,0.9c1.5,1,2.4,2.4,2,4.2c-0.2,1.1-0.7,2.2-1.2,3.2c-1.1,2.2-3.2,4.2-5.8,4.2
			c-0.6,0-1.1-0.1-1.6-0.3c-1.3,0.1-2.6-0.2-3.7-1.2c-2-1.7-1.9-4.7-0.8-6.9c0.9-1.8,2.6-3.1,4.4-3.8c-0.9-13.2,3.8-26.9,11.9-37.3
			c-12.6,8.2-24.4,16.3-29.3,30.8c4.4,1.9,4.9,8,1.5,11.6c-3,3-7.8,2.8-9.9-0.4c-0.9-0.3-1.6-0.9-2.1-2c-1.8-4.3,1.8-8.4,5.9-9.5
			c2.4-9.5,8.6-17.4,16.3-23.6c-13.9,8.8-27.9,19.4-38.9,31.9c0,0.8-0.5,1.7-1.6,1.8c-6,7.1-11.1,14.7-14.5,22.9
			c-14.6,34.5,17.7,40.4,42.8,42.3c4.9,0.4,9,0.9,12.7,2.5C1506.1,811.8,1506.6,811.7,1507.1,812z M1539,688.4
			c1.8-4.3,2.3-8-0.6-11.5c-0.2,0.1-0.5,0.2-0.8,0.2c-5.7-0.7-8.8,5.6-10.6,10.1c-0.8,2.1-1.8,4.6-1.6,6.9c0.3,3.5,3.2,6.6,6.8,4.6
			C1535.6,696.7,1537.7,691.7,1539,688.4z M1524.3,681.8c0.2-0.3,0.4-0.7,0.6-1c-13.7-24.7-51.1-48.2-78.8-51.7
			c-24.9-3.1-50.7,9.5-45.9,37.8c2,11.6,7.1,20.7,5.7,32.9c-0.1,0.8-0.7,1.1-1.3,1c-0.2,1.3-0.4,2.6-0.8,4.1
			c-3.1,11.4-4,21.9,6.4,29.9c12.9,9.9,33.1,7.2,49.3,6.2c16.8-19.3,41.7-34.5,61.3-42.8c0.3-0.2,0.7-0.2,1-0.1
			c-1-2.8-1-6.2-0.1-9.5c-14.6,0.7-28.7,1.3-43.1,3.3c-0.5,2.6-2.5,4.9-5.4,5.7c-0.6,0.2-1.2,0.2-1.8,0.2c-0.7,0.6-1.6,0.9-2.7,0.6
			c-5.2-1.6-7-8.3-3.7-12.5c3.3-4.2,9.8-3.2,12.6,1.1c0.2,0.2,0.2,0.4,0.3,0.7c14.5-2.7,30.1-3.7,44.5-1.4c0.3-0.8,0.6-1.6,1-2.4
			c-13.3-9.8-26.3-15.8-41.8-20.4c-1.8,2.4-4.8,3.8-8.1,2.9c-0.3,0.2-0.7,0.2-1.2,0.2c-1.7-0.2-3.2-0.6-4.8-1.2
			c-1.4-0.5-2.5-1.6-2.5-3.3c0-3.4,2.1-6.3,5.1-7.7c3.4-1.6,7.2-1,10.8-0.2c1,0.2,2.1,1.2,2.3,2.3c0.2,1.1,0.1,2.2-0.1,3.3
			C1498.4,662.6,1513.6,670.9,1524.3,681.8z"/>
	</g>
	<g class="st10">
		<path class="st11" d="M994.4,532.3c2.8,3.5,2.3,7.2,0.6,11.5c-1.3,3.3-3.4,8.3-6.7,10.1c-3.6,2-6.5-1.1-6.8-4.6
			c-0.2-2.3,0.8-4.7,1.6-6.9c1.8-4.5,4.9-10.7,10.6-10.1C993.9,532.5,994.1,532.4,994.4,532.3z"/>
		<linearGradient id="SVGID_11_" gradientUnits="userSpaceOnUse" x1="1018.0156" y1="543.7391" x2="1125.9995" y2="479.6083">
			<stop  offset="0" style="stop-color:#EE827C"/>
			<stop  offset="0.3746" style="stop-color:#F19A97"/>
			<stop  offset="0.7478" style="stop-color:#F4ACAB"/>
			<stop  offset="1" style="stop-color:#F5B2B2"/>
		</linearGradient>
		<path class="st24" d="M1121.2,526.8c3.6,9.7-1.3,20.7-9.7,26.4c-7.7,5.3-16.6,6.3-25.4,8.1c-25.3-14.8-59.5-19.7-86.2-17.8
			c0.6-1.9,1-3.9,1-5.9c0.2,0,0.3-0.1,0.5-0.3c6.2-6.4,12.8-10.1,21.5-11.5c0,0.1,0,0.3,0,0.4c0,1,0.5,2.1,1.5,2.5
			c4.8,2.1,11,2.3,14.2-2.6c2.7-4.2,1.2-10-3.8-11.3c-2.4-0.7-5.1,0.2-6.7,1.9c-0.4,0.1-0.8,0.2-1.1,0.5c-1.8,1.5-2.9,3.4-3.5,5.5
			c-8.6,0.6-17.3,5-22.6,11.8c-0.4-2.4-1.6-4.6-3.9-6.1c11.2-34.9,35.5-69.8,74.9-74.5c10.6-1.3,22.3-0.7,30.5,7.6
			c9.8,10.1,5.7,25.2,7.3,37.3C1110.7,509.7,1114.5,518.4,1121.2,526.8z"/>
		<linearGradient id="SVGID_12_" gradientUnits="userSpaceOnUse" x1="1006.0801" y1="567.869" x2="1099.7145" y2="648.4093">
			<stop  offset="0" style="stop-color:#EE827C"/>
			<stop  offset="0.3746" style="stop-color:#F19A97"/>
			<stop  offset="0.7478" style="stop-color:#F4ACAB"/>
			<stop  offset="1" style="stop-color:#F5B2B2"/>
		</linearGradient>
		<path class="st25" d="M1106,585.5c10.4,20.8-11.5,29.4-20.5,42.5c-5.3,7.8-7.6,15.3-6.7,24.2c-5.8,16.6-31.3,15.5-44.9,8.6
			c-12.1-6-21.9-16-29-27.4c-13.9-22.2-16.6-48.7-19.7-74.1c2.4,0.2,4.6-0.7,6.4-2.3c0.4,9.3,5.4,18.5,13,23.8
			c-0.5,0.8-0.7,1.6-0.7,2.6c0,0.9,0.4,1.6,0.9,2.1c0.2,1.3,0.8,2.5,1.7,3.4c3,3,7.8,1.9,9.8-1.7c2-3.6,0.5-8.3-3.6-9.5
			c-1.7-0.5-3.7-0.2-5.4,0.6c-7.6-5.7-12-13.5-13-23.4c0-0.2-0.1-0.5-0.2-0.7c0.2-0.3,0.4-0.7,0.7-1c5.9,5.3,13.3,8.8,21,10.4
			c-0.4,0.7-0.4,1.5,0,2.1c0.7,1,1.6,1.8,2.6,2.3c0.7,0.4,1.3,0.7,2,0.6c1.6,0.2,3.2-0.1,4.6-1c3.3-2.1,4.1-6.8,2-10
			c-2.2-3.3-6.9-2.1-9.1,0.5c-0.6,0.7-1.1,1.5-1.4,2.4c-7.5-1.4-14.2-4.4-20.6-8.8c0,0-0.1,0-0.1,0c1-1.6,1.8-3.1,2.5-4.6
			c0.1-0.3,0.3-0.7,0.4-1c0.2,0.2,0.5,0.3,0.8,0.3c19.8,0.5,39.4,2.6,58.3,8.9c6.9,2.3,15.5,5.3,23.5,9.3c0.2,0.2,0.5,0.4,0.8,0.4
			C1092.4,570.2,1101.6,576.8,1106,585.5z"/>
		<linearGradient id="SVGID_13_" gradientUnits="userSpaceOnUse" x1="983.8677" y1="508.8909" x2="952.745" y2="379.5829">
			<stop  offset="0" style="stop-color:#EE827C"/>
			<stop  offset="0.3746" style="stop-color:#F19A97"/>
			<stop  offset="0.7478" style="stop-color:#F4ACAB"/>
			<stop  offset="1" style="stop-color:#F5B2B2"/>
		</linearGradient>
		<path class="st26" d="M1019.6,416.1c17.3,11,17.9,32.8,11.4,50.2c-19.2,15.2-33.1,38.3-37,61.6c-0.6,0.3-1,0.8-1.2,1.3
			c-1.4-0.3-2.7-0.1-4,0.3c-2.3-13.3-2.5-26.4-1.4-39.8c0.3-0.1,0.7-0.1,1-0.2c5.1-2,5.8-9.5,1.4-12.6c-4.6-3.3-12.4,0.4-11.3,6.4
			c0.1,0.7,0.4,1.1,0.8,1.5c0.7,2.5,2.8,4.4,5.4,5c-1.4,13.5-0.3,27,2.6,40.3c-0.8,0.4-1.5,0.9-2.2,1.4c-9.9-12.4-16-25.5-18.2-41.2
			c3.4-0.5,5.9-4.6,4.9-8.1c-1.5-5.1-8.4-6-11.9-2.6c-2,1.9-2.7,5.2-0.7,7.3c0.8,0.8,1.9,1.3,2.9,1.3c0.2,0.3,0.5,0.6,0.7,0.8
			c0.6,8.6,2.7,17,6.2,24.9c-7.8-7.4-17.1-13.5-26-19.2c-2.4-1.5-4.8-3-7.3-4.4c-20.9-15.8-49.5-42.2-23.7-66.4
			c19.9-18.6,44.5-4.2,67.3-7.7c4.8,0.5,8.2-0.8,13.2-2.5C1002.2,410.7,1010.8,410.4,1019.6,416.1z"/>
		<linearGradient id="SVGID_14_" gradientUnits="userSpaceOnUse" x1="967.4618" y1="582.3679" x2="946.6502" y2="685.6713">
			<stop  offset="0" style="stop-color:#EE827C"/>
			<stop  offset="0.3746" style="stop-color:#F19A97"/>
			<stop  offset="0.7478" style="stop-color:#F4ACAB"/>
			<stop  offset="1" style="stop-color:#F5B2B2"/>
		</linearGradient>
		<path class="st27" d="M1007.8,646c2.1,25.3-26.3,34.1-44.7,21.3c-0.5-0.3-1-0.2-1.3,0.1c-3.8-1.6-7.9-2.1-12.7-2.5
			c-25.1-1.9-57.4-7.8-42.8-42.3c3.5-8.2,8.5-15.8,14.5-22.9c1-0.2,1.6-1,1.6-1.8c11-12.4,24.9-23,38.9-31.9
			c-7.7,6.3-13.9,14.1-16.3,23.6c-4.1,1-7.7,5.2-5.9,9.5c0.5,1.1,1.2,1.7,2.1,2c2.1,3.1,7,3.4,9.9,0.4c3.4-3.5,2.9-9.6-1.5-11.6
			c5-14.6,16.8-22.6,29.3-30.8c-8.1,10.4-12.8,24.1-11.9,37.3c-1.9,0.7-3.6,2-4.4,3.8c-1.1,2.2-1.2,5.2,0.8,6.9
			c1.1,1,2.4,1.3,3.7,1.2c0.5,0.2,1,0.3,1.6,0.3c2.6-0.1,4.7-2,5.8-4.2c0.5-1,1-2.1,1.2-3.2c0.4-1.8-0.6-3.2-2-4.2
			c-0.7-0.5-1.5-0.8-2.4-0.9c0.3-12.8,3-23.9,10-34.9C983.7,590.7,988.8,623,1007.8,646z"/>
		<linearGradient id="SVGID_15_" gradientUnits="userSpaceOnUse" x1="959.9562" y1="544.415" x2="846.6909" y2="538.1792">
			<stop  offset="0" style="stop-color:#EE827C"/>
			<stop  offset="0.3746" style="stop-color:#F19A97"/>
			<stop  offset="0.7478" style="stop-color:#F4ACAB"/>
			<stop  offset="1" style="stop-color:#F5B2B2"/>
		</linearGradient>
		<path class="st28" d="M980.9,536.2c-0.2,0.3-0.4,0.7-0.6,1c-10.8-10.9-26-19.2-41.2-22.2c0.2-1.1,0.3-2.1,0.1-3.3
			c-0.2-1.1-1.3-2.1-2.3-2.3c-3.6-0.8-7.3-1.5-10.8,0.2c-3,1.4-5,4.3-5.1,7.7c0,1.6,1.1,2.7,2.5,3.3c1.6,0.7,3.1,1.1,4.8,1.2
			c0.5,0,0.9,0,1.2-0.2c3.3,0.9,6.3-0.4,8.1-2.9c15.5,4.6,28.5,10.6,41.8,20.4c-0.4,0.8-0.7,1.6-1,2.4c-14.4-2.3-30-1.3-44.5,1.4
			c-0.1-0.2-0.2-0.5-0.3-0.7c-2.8-4.2-9.3-5.3-12.6-1.1c-3.3,4.2-1.5,11,3.7,12.5c1.1,0.3,2,0,2.7-0.6c0.6,0,1.2-0.1,1.8-0.2
			c2.9-0.7,4.9-3.1,5.4-5.7c14.4-2,28.5-2.6,43.1-3.3c-0.8,3.4-0.9,6.8,0.1,9.5c-0.3-0.1-0.7-0.1-1,0.1
			c-19.6,8.3-44.5,23.5-61.3,42.8c-16.2,1-36.4,3.7-49.3-6.2c-10.4-8-9.5-18.5-6.4-29.9c0.4-1.5,0.7-2.8,0.8-4.1
			c0.6,0.1,1.3-0.3,1.3-1c1.4-12.1-3.7-21.2-5.7-32.9c-4.9-28.2,21-40.8,45.9-37.8C929.8,488,967.2,511.4,980.9,536.2z"/>
		<path class="st17" d="M1023.6,551.8c-21,11.6-30.6,37-41.2,58C966.2,595,949.1,581,929.5,571c-3.2-1.7-6.7,2.4-4,5.1
			c17.4,17,36.4,32.3,53.9,49.2c3.1,3,8.3,2.4,10.4-1.3c13-22.5,23-43.5,41-62.5C1035.7,556.4,1029.7,548.4,1023.6,551.8z"/>
		<path class="st17" d="M1069.3,633.7c-24.2-7.8-47-14.5-72.8-10.5c-5.6,0.9-3.5,8.6,1.2,9.1c13.9,1.5,27.5,2.7,41.1,6
			c9,2.2,19.6,8.5,28.7,8.7C1075.4,647.1,1076.4,636,1069.3,633.7z"/>
		<path class="st18" d="M1123.3,525.8c4.4,7.7,2.4,16.9-3.1,24.2c-6.6,8.6-18.2,12.8-29.3,14.4c5.2,3.5,9.9,7.3,14,11.8
			c6.4,7,12.8,18.2,8.8,28c-2.4,5.9-9.3,10.1-13.7,14.3c-10.4,10-18.1,21.3-17.4,36.3c0,1-0.8,1.6-1.7,1.6
			c-4.7,21.3-41.9,14.3-56.5,4.6c-4.6-3-8.6-6.4-12.2-10.1c-1.1,21.7-24.7,31.3-43.2,23c-0.3,0.3-0.8,0.4-1.2,0.2
			c-17.4-11-40.4,0-58.2-12.5c-10-7-14.5-17.9-12.5-30c1.9-11.1,7.3-21.7,15-31.3c-16.4,1.2-35.5,2.9-48.6-7.1
			c-5.4-4.1-9.7-10-10.5-16.8c-1.3-10.4,6.7-18.8,5.7-29.2c0-0.3,0.1-0.4,0.2-0.6c-2.9-15.2-12.2-30.7-5.9-45.8
			c5.6-13.5,20.7-20.7,34.4-22.3c10.8-1.3,21.1,0.3,31,3.8c-15-12.6-25.9-29.6-18.2-49.6c14.1-36.7,56.7-16.5,83.8-20.6
			c0.7-0.1,1.3,0.2,1.6,0.7c7.5-1.7,14.7-6.3,23-5.2c7.4,1,14.6,4.6,20,9.8c12,11.6,13.5,28.8,9.3,44.1c10-6.6,21.2-11.1,33.1-12.5
			c13.5-1.7,29.5,0.8,37.6,13c3.7,5.6,4.4,12,4.8,18.5c1.2,17.6,0.7,29.2,10.2,44.9C1123.3,525.6,1123.3,525.8,1123.3,525.8z
			 M1111.4,553.2c8.4-5.7,13.4-16.8,9.7-26.4c-6.7-8.3-10.4-17.1-11.8-27.9c-1.5-12.1,2.6-27.2-7.3-37.3c-8.1-8.3-19.9-8.9-30.5-7.6
			c-39.4,4.7-63.6,39.6-74.9,74.5c2.3,1.5,3.4,3.7,3.9,6.1c5.3-6.8,14-11.2,22.6-11.8c0.6-2.1,1.7-4.1,3.5-5.5
			c0.4-0.3,0.8-0.5,1.1-0.5c1.6-1.7,4.3-2.6,6.7-1.9c5.1,1.3,6.5,7.1,3.8,11.3c-3.2,4.9-9.4,4.8-14.2,2.6c-1-0.4-1.4-1.6-1.5-2.5
			c0-0.1,0-0.3,0-0.4c-8.6,1.4-15.3,5.2-21.5,11.5c-0.2,0.2-0.3,0.2-0.5,0.3c-0.1,2-0.5,4-1,5.9c26.7-2,60.9,2.9,86.2,17.8
			C1094.8,559.5,1103.7,558.5,1111.4,553.2z M1085.6,628.1c9-13.2,30.9-21.7,20.5-42.5c-4.4-8.7-13.6-15.3-23.7-20.3
			c-0.3,0-0.6-0.2-0.8-0.4c-8.1-4-16.6-6.9-23.5-9.3c-18.9-6.3-38.5-8.3-58.3-8.9c-0.3,0-0.6-0.1-0.8-0.3c-0.2,0.3-0.3,0.7-0.4,1
			c-0.7,1.4-1.5,3-2.5,4.6c0,0,0,0,0.1,0c6.4,4.4,13,7.4,20.6,8.8c0.3-0.8,0.8-1.6,1.4-2.4c2.2-2.6,6.9-3.9,9.1-0.5
			c2.1,3.2,1.4,7.9-2,10c-1.4,0.9-3.1,1.2-4.6,1c-0.7,0-1.3-0.2-2-0.6c-1-0.5-1.9-1.2-2.6-2.3c-0.5-0.7-0.4-1.5,0-2.1
			c-7.7-1.6-15.2-5.1-21-10.4c-0.3,0.3-0.5,0.7-0.7,1c0.1,0.2,0.2,0.4,0.2,0.7c1,9.9,5.4,17.7,13,23.4c1.7-0.8,3.7-1.1,5.4-0.6
			c4.1,1.2,5.6,5.9,3.6,9.5c-2,3.6-6.8,4.7-9.8,1.7c-0.9-0.9-1.5-2.1-1.7-3.4c-0.5-0.5-0.8-1.2-0.9-2.1c0-1,0.2-1.9,0.7-2.6
			c-7.6-5.4-12.6-14.5-13-23.8c-1.8,1.5-3.9,2.4-6.4,2.3c3,25.4,5.8,51.9,19.7,74.1c7.1,11.4,16.9,21.3,29,27.4
			c13.6,6.8,39.1,7.9,44.9-8.6C1078,643.4,1080.3,635.8,1085.6,628.1z M1031.1,466.3c6.5-17.4,5.8-39.2-11.4-50.2
			c-8.8-5.7-17.4-5.4-26.9-2.3c-5,1.7-8.5,3.1-13.2,2.5c-22.8,3.5-47.5-10.9-67.3,7.7c-25.8,24.2,2.8,50.6,23.7,66.4
			c2.5,1.4,4.9,2.8,7.3,4.4c8.9,5.6,18.1,11.8,26,19.2c-3.6-7.9-5.6-16.3-6.2-24.9c-0.3-0.2-0.5-0.5-0.7-0.8c-1.1,0-2.1-0.4-2.9-1.3
			c-2.1-2.1-1.3-5.5,0.7-7.3c3.5-3.4,10.5-2.5,11.9,2.6c1,3.4-1.5,7.5-4.9,8.1c2.2,15.6,8.3,28.8,18.2,41.2c0.7-0.5,1.5-1,2.2-1.4
			c-2.9-13.3-4-26.8-2.6-40.3c-2.5-0.6-4.7-2.5-5.4-5c-0.4-0.3-0.7-0.8-0.8-1.5c-1.1-6,6.7-9.6,11.3-6.4c4.4,3.1,3.7,10.6-1.4,12.6
			c-0.3,0.1-0.7,0.1-1,0.2c-1.1,13.4-1,26.5,1.4,39.8c1.3-0.4,2.6-0.6,4-0.3c0.2-0.6,0.6-1.1,1.2-1.3
			C998,504.6,1011.8,481.5,1031.1,466.3z M963,667.4c18.4,12.8,46.8,3.9,44.7-21.3c-19-23-24-55.3-26.7-84.8c-7,11-9.8,22-10,34.9
			c0.8,0.2,1.6,0.4,2.4,0.9c1.5,1,2.4,2.4,2,4.2c-0.2,1.1-0.7,2.2-1.2,3.2c-1.1,2.2-3.2,4.2-5.8,4.2c-0.6,0-1.1-0.1-1.6-0.3
			c-1.3,0.1-2.6-0.2-3.7-1.2c-2-1.7-1.9-4.7-0.8-6.9c0.9-1.8,2.6-3.1,4.4-3.8c-0.9-13.2,3.8-26.9,11.9-37.3
			c-12.6,8.2-24.4,16.3-29.3,30.8c4.4,1.9,4.9,8,1.5,11.6c-3,3-7.8,2.8-9.9-0.4c-0.9-0.3-1.6-0.9-2.1-2c-1.8-4.3,1.8-8.4,5.9-9.5
			c2.4-9.5,8.6-17.4,16.3-23.6c-13.9,8.8-27.9,19.4-38.9,31.9c0,0.8-0.5,1.7-1.6,1.8c-6,7.1-11.1,14.7-14.5,22.9
			c-14.6,34.5,17.7,40.4,42.8,42.3c4.9,0.4,9,0.9,12.7,2.5C962.1,667.2,962.6,667,963,667.4z M994.9,543.8c1.8-4.3,2.3-8-0.6-11.5
			c-0.2,0.1-0.5,0.2-0.8,0.2c-5.7-0.7-8.8,5.6-10.6,10.1c-0.8,2.1-1.8,4.6-1.6,6.9c0.3,3.5,3.2,6.6,6.8,4.6
			C991.5,552.1,993.6,547.1,994.9,543.8z M980.3,537.2c0.2-0.3,0.4-0.7,0.6-1c-13.7-24.7-51.1-48.2-78.8-51.7
			c-24.9-3.1-50.7,9.5-45.9,37.8c2,11.6,7.1,20.7,5.7,32.9c-0.1,0.8-0.7,1.1-1.3,1c-0.2,1.3-0.4,2.6-0.8,4.1
			c-3.1,11.4-4,21.9,6.4,29.9c12.9,9.9,33.1,7.2,49.3,6.2c16.8-19.3,41.7-34.5,61.3-42.8c0.3-0.2,0.7-0.2,1-0.1
			c-1-2.8-1-6.2-0.1-9.5c-14.6,0.7-28.7,1.3-43.1,3.3c-0.5,2.6-2.5,4.9-5.4,5.7c-0.6,0.2-1.2,0.2-1.8,0.2c-0.7,0.6-1.6,0.9-2.7,0.6
			c-5.2-1.6-7-8.3-3.7-12.5c3.3-4.2,9.8-3.2,12.6,1.1c0.2,0.2,0.2,0.4,0.3,0.7c14.5-2.7,30.1-3.7,44.5-1.4c0.3-0.8,0.6-1.6,1-2.4
			c-13.3-9.8-26.3-15.8-41.8-20.4c-1.8,2.4-4.8,3.8-8.1,2.9c-0.3,0.2-0.7,0.2-1.2,0.2c-1.7-0.2-3.2-0.6-4.8-1.2
			c-1.4-0.5-2.5-1.6-2.5-3.3c0-3.4,2.1-6.3,5.1-7.7c3.4-1.6,7.2-1,10.8-0.2c1,0.2,2.1,1.2,2.3,2.3c0.2,1.1,0.1,2.2-0.1,3.3
			C954.3,517.9,969.5,526.3,980.3,537.2z"/>
	</g>
	<g class="st10">
		<path class="st11" d="M648.5,295.2c2.8,3.5,2.3,7.2,0.6,11.5c-1.3,3.3-3.4,8.3-6.7,10.1c-3.6,2-6.5-1.1-6.8-4.6
			c-0.2-2.3,0.8-4.7,1.6-6.9c1.8-4.5,4.9-10.7,10.6-10.1C648,295.4,648.3,295.3,648.5,295.2z"/>
		<linearGradient id="SVGID_16_" gradientUnits="userSpaceOnUse" x1="672.1821" y1="306.6134" x2="780.1659" y2="242.4826">
			<stop  offset="0" style="stop-color:#EE827C"/>
			<stop  offset="0.3746" style="stop-color:#F19A97"/>
			<stop  offset="0.7478" style="stop-color:#F4ACAB"/>
			<stop  offset="1" style="stop-color:#F5B2B2"/>
		</linearGradient>
		<path class="st29" d="M775.3,289.7c3.6,9.7-1.3,20.7-9.7,26.4c-7.7,5.3-16.6,6.3-25.4,8.1c-25.3-14.8-59.5-19.7-86.2-17.8
			c0.6-1.9,1-3.9,1-5.9c0.2,0,0.3-0.1,0.5-0.3c6.2-6.4,12.8-10.1,21.5-11.5c0,0.1,0,0.3,0,0.4c0,1,0.5,2.1,1.5,2.5
			c4.8,2.1,11,2.3,14.2-2.6c2.7-4.2,1.2-10-3.8-11.3c-2.4-0.7-5.1,0.2-6.7,1.9c-0.4,0.1-0.8,0.2-1.1,0.5c-1.8,1.5-2.9,3.4-3.5,5.5
			c-8.6,0.6-17.3,5-22.6,11.8c-0.4-2.4-1.6-4.6-3.9-6.1c11.2-34.9,35.5-69.8,74.9-74.5c10.6-1.3,22.3-0.7,30.5,7.6
			c9.8,10.1,5.7,25.2,7.3,37.3C764.9,272.6,768.7,281.3,775.3,289.7z"/>
		<linearGradient id="SVGID_17_" gradientUnits="userSpaceOnUse" x1="660.2466" y1="330.7433" x2="753.8809" y2="411.2836">
			<stop  offset="0" style="stop-color:#EE827C"/>
			<stop  offset="0.3746" style="stop-color:#F19A97"/>
			<stop  offset="0.7478" style="stop-color:#F4ACAB"/>
			<stop  offset="1" style="stop-color:#F5B2B2"/>
		</linearGradient>
		<path class="st30" d="M760.2,348.4c10.4,20.8-11.5,29.4-20.5,42.5c-5.3,7.8-7.6,15.3-6.7,24.2c-5.8,16.6-31.3,15.5-44.9,8.6
			c-12.1-6-21.9-16-29-27.4c-13.9-22.2-16.6-48.7-19.7-74.1c2.4,0.2,4.6-0.7,6.4-2.3c0.4,9.3,5.4,18.5,13,23.8
			c-0.5,0.8-0.7,1.6-0.7,2.6c0,0.9,0.4,1.6,0.9,2.1c0.2,1.3,0.8,2.5,1.7,3.4c3,3,7.8,1.9,9.8-1.7c2-3.6,0.5-8.3-3.6-9.5
			c-1.7-0.5-3.7-0.2-5.4,0.6c-7.6-5.7-12-13.5-13-23.4c0-0.2-0.1-0.5-0.2-0.7c0.2-0.3,0.4-0.7,0.7-1c5.9,5.3,13.3,8.8,21,10.4
			c-0.4,0.7-0.4,1.5,0,2.1c0.7,1,1.6,1.8,2.6,2.3c0.7,0.4,1.3,0.7,2,0.6c1.6,0.2,3.2-0.1,4.6-1c3.3-2.1,4.1-6.8,2-10
			c-2.2-3.3-6.9-2.1-9.1,0.5c-0.6,0.7-1.1,1.5-1.4,2.4c-7.5-1.4-14.2-4.4-20.6-8.8c0,0-0.1,0-0.1,0c1-1.6,1.8-3.1,2.5-4.6
			c0.1-0.3,0.3-0.7,0.4-1c0.2,0.2,0.5,0.3,0.8,0.3c19.8,0.5,39.4,2.6,58.3,8.9c6.9,2.3,15.5,5.3,23.5,9.3c0.2,0.2,0.5,0.4,0.8,0.4
			C746.6,333.1,755.8,339.7,760.2,348.4z"/>
		<linearGradient id="SVGID_18_" gradientUnits="userSpaceOnUse" x1="638.0342" y1="271.7652" x2="606.9114" y2="142.4572">
			<stop  offset="0" style="stop-color:#EE827C"/>
			<stop  offset="0.3746" style="stop-color:#F19A97"/>
			<stop  offset="0.7478" style="stop-color:#F4ACAB"/>
			<stop  offset="1" style="stop-color:#F5B2B2"/>
		</linearGradient>
		<path class="st31" d="M673.8,179c17.3,11,17.9,32.8,11.4,50.2c-19.2,15.2-33.1,38.3-37,61.6c-0.6,0.3-1,0.8-1.2,1.3
			c-1.4-0.3-2.7-0.1-4,0.3c-2.3-13.3-2.5-26.4-1.4-39.8c0.3-0.1,0.7-0.1,1-0.2c5.1-2,5.8-9.5,1.4-12.6c-4.6-3.3-12.4,0.4-11.3,6.4
			c0.1,0.7,0.4,1.1,0.8,1.5c0.7,2.5,2.8,4.4,5.4,5c-1.4,13.5-0.3,27,2.6,40.3c-0.8,0.4-1.5,0.9-2.2,1.4c-9.9-12.4-16-25.5-18.2-41.2
			c3.4-0.5,5.9-4.6,4.9-8.1c-1.5-5.1-8.4-6-11.9-2.6c-2,1.9-2.7,5.2-0.7,7.3c0.8,0.8,1.9,1.3,2.9,1.3c0.2,0.3,0.5,0.6,0.7,0.8
			c0.6,8.6,2.7,17,6.2,24.9c-7.8-7.4-17.1-13.5-26-19.2c-2.4-1.5-4.8-3-7.3-4.4c-20.9-15.8-49.5-42.2-23.7-66.4
			c19.9-18.6,44.5-4.2,67.3-7.7c4.8,0.5,8.2-0.8,13.2-2.5C656.4,173.5,664.9,173.3,673.8,179z"/>
		<linearGradient id="SVGID_19_" gradientUnits="userSpaceOnUse" x1="621.6282" y1="345.2422" x2="600.8167" y2="448.5456">
			<stop  offset="0" style="stop-color:#EE827C"/>
			<stop  offset="0.3746" style="stop-color:#F19A97"/>
			<stop  offset="0.7478" style="stop-color:#F4ACAB"/>
			<stop  offset="1" style="stop-color:#F5B2B2"/>
		</linearGradient>
		<path class="st32" d="M661.9,408.9c2.1,25.3-26.3,34.1-44.7,21.3c-0.5-0.3-1-0.2-1.3,0.1c-3.8-1.6-7.9-2.1-12.7-2.5
			c-25.1-1.9-57.4-7.8-42.8-42.3c3.5-8.2,8.5-15.8,14.5-22.9c1-0.2,1.6-1,1.6-1.8c11-12.4,24.9-23,38.9-31.9
			c-7.7,6.3-13.9,14.1-16.3,23.6c-4.1,1-7.7,5.2-5.9,9.5c0.5,1.1,1.2,1.7,2.1,2c2.1,3.1,7,3.4,9.9,0.4c3.4-3.5,2.9-9.6-1.5-11.6
			c5-14.6,16.8-22.6,29.3-30.8c-8.1,10.4-12.8,24.1-11.9,37.3c-1.9,0.7-3.6,2-4.4,3.8c-1.1,2.2-1.2,5.2,0.8,6.9
			c1.1,1,2.4,1.3,3.7,1.2c0.5,0.2,1,0.3,1.6,0.3c2.6-0.1,4.7-2,5.8-4.2c0.5-1,1-2.1,1.2-3.2c0.4-1.8-0.6-3.2-2-4.2
			c-0.7-0.5-1.5-0.8-2.4-0.9c0.3-12.8,3-23.9,10-34.9C637.9,353.6,642.9,385.9,661.9,408.9z"/>
		<linearGradient id="SVGID_20_" gradientUnits="userSpaceOnUse" x1="614.1227" y1="307.2893" x2="500.8574" y2="301.0535">
			<stop  offset="0" style="stop-color:#EE827C"/>
			<stop  offset="0.3746" style="stop-color:#F19A97"/>
			<stop  offset="0.7478" style="stop-color:#F4ACAB"/>
			<stop  offset="1" style="stop-color:#F5B2B2"/>
		</linearGradient>
		<path class="st33" d="M635.1,299c-0.2,0.3-0.4,0.7-0.6,1c-10.8-10.9-26-19.2-41.2-22.2c0.2-1.1,0.3-2.1,0.1-3.3
			c-0.2-1.1-1.3-2.1-2.3-2.3c-3.6-0.8-7.3-1.5-10.8,0.2c-3,1.4-5,4.3-5.1,7.7c0,1.6,1.1,2.7,2.5,3.3c1.6,0.7,3.1,1.1,4.8,1.2
			c0.5,0,0.9,0,1.2-0.2c3.3,0.9,6.3-0.4,8.1-2.9c15.5,4.6,28.5,10.6,41.8,20.4c-0.4,0.8-0.7,1.6-1,2.4c-14.4-2.3-30-1.3-44.5,1.4
			c-0.1-0.2-0.2-0.5-0.3-0.7c-2.8-4.2-9.3-5.3-12.6-1.1c-3.3,4.2-1.5,11,3.7,12.5c1.1,0.3,2,0,2.7-0.6c0.6,0,1.2-0.1,1.8-0.2
			c2.9-0.7,4.9-3.1,5.4-5.7c14.4-2,28.5-2.6,43.1-3.3c-0.8,3.4-0.9,6.8,0.1,9.5c-0.3-0.1-0.7-0.1-1,0.1
			c-19.6,8.3-44.5,23.5-61.3,42.8c-16.2,1-36.4,3.7-49.3-6.2c-10.4-8-9.5-18.5-6.4-29.9c0.4-1.5,0.7-2.8,0.8-4.1
			c0.6,0.1,1.3-0.3,1.3-1c1.4-12.1-3.7-21.2-5.7-32.9c-4.9-28.2,21-40.8,45.9-37.8C584,250.8,621.4,274.3,635.1,299z"/>
		<path class="st17" d="M677.8,314.7c-21,11.6-30.6,37-41.2,58c-16.2-14.8-33.3-28.8-52.8-38.9c-3.2-1.7-6.7,2.4-4,5.1
			c17.4,17,36.4,32.3,53.9,49.2c3.1,3,8.3,2.4,10.4-1.3c13-22.5,23-43.5,41-62.5C689.9,319.3,683.9,311.3,677.8,314.7z"/>
		<path class="st17" d="M723.5,396.6c-24.2-7.8-47-14.5-72.8-10.5c-5.6,0.9-3.5,8.6,1.2,9.1c13.9,1.5,27.5,2.7,41.1,6
			c9,2.2,19.6,8.5,28.7,8.7C729.5,410,730.6,398.9,723.5,396.6z"/>
		<path class="st18" d="M777.5,288.7c4.4,7.7,2.4,16.9-3.1,24.2c-6.6,8.6-18.2,12.8-29.3,14.4c5.2,3.5,9.9,7.3,14,11.8
			c6.4,7,12.8,18.2,8.8,28c-2.4,5.9-9.3,10.1-13.7,14.3c-10.4,10-18.1,21.3-17.4,36.3c0,1-0.8,1.6-1.7,1.6
			c-4.7,21.3-41.9,14.3-56.5,4.6c-4.6-3-8.6-6.4-12.2-10.1c-1.1,21.7-24.7,31.3-43.2,23c-0.3,0.3-0.8,0.4-1.2,0.2
			c-17.4-11-40.4,0-58.2-12.5c-10-7-14.5-17.9-12.5-30c1.9-11.1,7.3-21.7,15-31.3c-16.4,1.2-35.5,2.9-48.6-7.1
			c-5.4-4.1-9.7-10-10.5-16.8c-1.3-10.4,6.7-18.8,5.7-29.2c0-0.3,0.1-0.4,0.2-0.6c-2.9-15.2-12.2-30.7-5.9-45.8
			c5.6-13.5,20.7-20.7,34.4-22.3c10.8-1.3,21.1,0.3,31,3.8c-15-12.6-25.9-29.6-18.2-49.6c14.1-36.7,56.7-16.5,83.8-20.6
			c0.7-0.1,1.3,0.2,1.6,0.7c7.5-1.7,14.7-6.3,23-5.2c7.4,1,14.6,4.6,20,9.8c12,11.6,13.5,28.8,9.3,44.1c10-6.6,21.2-11.1,33.1-12.5
			c13.5-1.7,29.5,0.8,37.6,13c3.7,5.6,4.4,12,4.8,18.5c1.2,17.6,0.7,29.2,10.2,44.9C777.5,288.5,777.5,288.6,777.5,288.7z
			 M765.6,316.1c8.4-5.7,13.4-16.8,9.7-26.4c-6.7-8.3-10.4-17.1-11.8-27.9c-1.5-12.1,2.6-27.2-7.3-37.3c-8.1-8.3-19.9-8.9-30.5-7.6
			c-39.4,4.7-63.6,39.6-74.9,74.5c2.3,1.5,3.4,3.7,3.9,6.1c5.3-6.8,14-11.2,22.6-11.8c0.6-2.1,1.7-4.1,3.5-5.5
			c0.4-0.3,0.8-0.5,1.1-0.5c1.6-1.7,4.3-2.6,6.7-1.9c5.1,1.3,6.5,7.1,3.8,11.3c-3.2,4.9-9.4,4.8-14.2,2.6c-1-0.4-1.4-1.6-1.5-2.5
			c0-0.1,0-0.3,0-0.4c-8.6,1.4-15.3,5.2-21.5,11.5c-0.2,0.2-0.3,0.2-0.5,0.3c-0.1,2-0.5,4-1,5.9c26.7-2,60.9,2.9,86.2,17.8
			C749,322.4,757.9,321.4,765.6,316.1z M739.7,390.9c9-13.2,30.9-21.7,20.5-42.5c-4.4-8.7-13.6-15.3-23.7-20.3
			c-0.3,0-0.6-0.2-0.8-0.4c-8.1-4-16.6-6.9-23.5-9.3c-18.9-6.3-38.5-8.3-58.3-8.9c-0.3,0-0.6-0.1-0.8-0.3c-0.2,0.3-0.3,0.7-0.4,1
			c-0.7,1.4-1.5,3-2.5,4.6c0,0,0,0,0.1,0c6.4,4.4,13,7.4,20.6,8.8c0.3-0.8,0.8-1.6,1.4-2.4c2.2-2.6,6.9-3.9,9.1-0.5
			c2.1,3.2,1.4,7.9-2,10c-1.4,0.9-3.1,1.2-4.6,1c-0.7,0-1.3-0.2-2-0.6c-1-0.5-1.9-1.2-2.6-2.3c-0.5-0.7-0.4-1.5,0-2.1
			c-7.7-1.6-15.2-5.1-21-10.4c-0.3,0.3-0.5,0.7-0.7,1c0.1,0.2,0.2,0.4,0.2,0.7c1,9.9,5.4,17.7,13,23.4c1.7-0.8,3.7-1.1,5.4-0.6
			c4.1,1.2,5.6,5.9,3.6,9.5c-2,3.6-6.8,4.7-9.8,1.7c-0.9-0.9-1.5-2.1-1.7-3.4c-0.5-0.5-0.8-1.2-0.9-2.1c0-1,0.2-1.9,0.7-2.6
			c-7.6-5.4-12.6-14.5-13-23.8c-1.8,1.5-3.9,2.4-6.4,2.3c3,25.4,5.8,51.9,19.7,74.1c7.1,11.4,16.9,21.3,29,27.4
			c13.6,6.8,39.1,7.9,44.9-8.6C732.2,406.2,734.4,398.7,739.7,390.9z M685.2,229.2c6.5-17.4,5.8-39.2-11.4-50.2
			c-8.8-5.7-17.4-5.4-26.9-2.3c-5,1.7-8.5,3.1-13.2,2.5c-22.8,3.5-47.5-10.9-67.3,7.7c-25.8,24.2,2.8,50.6,23.7,66.4
			c2.5,1.4,4.9,2.8,7.3,4.4c8.9,5.6,18.1,11.8,26,19.2c-3.6-7.9-5.6-16.3-6.2-24.9c-0.3-0.2-0.5-0.5-0.7-0.8c-1.1,0-2.1-0.4-2.9-1.3
			c-2.1-2.1-1.3-5.5,0.7-7.3c3.5-3.4,10.5-2.5,11.9,2.6c1,3.4-1.5,7.5-4.9,8.1c2.2,15.6,8.3,28.8,18.2,41.2c0.7-0.5,1.5-1,2.2-1.4
			c-2.9-13.3-4-26.8-2.6-40.3c-2.5-0.6-4.7-2.5-5.4-5c-0.4-0.3-0.7-0.8-0.8-1.5c-1.1-6,6.7-9.6,11.3-6.4c4.4,3.1,3.7,10.6-1.4,12.6
			c-0.3,0.1-0.7,0.1-1,0.2c-1.1,13.4-1,26.5,1.4,39.8c1.3-0.4,2.6-0.6,4-0.3c0.2-0.6,0.6-1.1,1.2-1.3
			C652.2,267.5,666,244.4,685.2,229.2z M617.2,430.2c18.4,12.8,46.8,3.9,44.7-21.3c-19-23-24-55.3-26.7-84.8c-7,11-9.8,22-10,34.9
			c0.8,0.2,1.6,0.4,2.4,0.9c1.5,1,2.4,2.4,2,4.2c-0.2,1.1-0.7,2.2-1.2,3.2c-1.1,2.2-3.2,4.2-5.8,4.2c-0.6,0-1.1-0.1-1.6-0.3
			c-1.3,0.1-2.6-0.2-3.7-1.2c-2-1.7-1.9-4.7-0.8-6.9c0.9-1.8,2.6-3.1,4.4-3.8c-0.9-13.2,3.8-26.9,11.9-37.3
			c-12.6,8.2-24.4,16.3-29.3,30.8c4.4,1.9,4.9,8,1.5,11.6c-3,3-7.8,2.8-9.9-0.4c-0.9-0.3-1.6-0.9-2.1-2c-1.8-4.3,1.8-8.4,5.9-9.5
			c2.4-9.5,8.6-17.4,16.3-23.6c-13.9,8.8-27.9,19.4-38.9,31.9c0,0.8-0.5,1.7-1.6,1.8c-6,7.1-11.1,14.7-14.5,22.9
			c-14.6,34.5,17.7,40.4,42.8,42.3c4.9,0.4,9,0.9,12.7,2.5C616.2,430,616.7,429.9,617.2,430.2z M649.1,306.7c1.8-4.3,2.3-8-0.6-11.5
			c-0.2,0.1-0.5,0.2-0.8,0.2c-5.7-0.7-8.8,5.6-10.6,10.1c-0.8,2.1-1.8,4.6-1.6,6.9c0.3,3.5,3.2,6.6,6.8,4.6
			C645.7,315,647.8,310,649.1,306.7z M634.5,300.1c0.2-0.3,0.4-0.7,0.6-1c-13.7-24.7-51.1-48.2-78.8-51.7
			c-24.9-3.1-50.7,9.5-45.9,37.8c2,11.6,7.1,20.7,5.7,32.9c-0.1,0.8-0.7,1.1-1.3,1c-0.2,1.3-0.4,2.6-0.8,4.1
			c-3.1,11.4-4,21.9,6.4,29.9c12.9,9.9,33.1,7.2,49.3,6.2c16.8-19.3,41.7-34.5,61.3-42.8c0.3-0.2,0.7-0.2,1-0.1
			c-1-2.8-1-6.2-0.1-9.5c-14.6,0.7-28.7,1.3-43.1,3.3c-0.5,2.6-2.5,4.9-5.4,5.7c-0.6,0.2-1.2,0.2-1.8,0.2c-0.7,0.6-1.6,0.9-2.7,0.6
			c-5.2-1.6-7-8.3-3.7-12.5c3.3-4.2,9.8-3.2,12.6,1.1c0.2,0.2,0.2,0.4,0.3,0.7c14.5-2.7,30.1-3.7,44.5-1.4c0.3-0.8,0.6-1.6,1-2.4
			c-13.3-9.8-26.3-15.8-41.8-20.4c-1.8,2.4-4.8,3.8-8.1,2.9c-0.3,0.2-0.7,0.2-1.2,0.2c-1.7-0.2-3.2-0.6-4.8-1.2
			c-1.4-0.5-2.5-1.6-2.5-3.3c0-3.4,2.1-6.3,5.1-7.7c3.4-1.6,7.2-1,10.8-0.2c1,0.2,2.1,1.2,2.3,2.3c0.2,1.1,0.1,2.2-0.1,3.3
			C608.5,280.8,623.7,289.2,634.5,300.1z"/>
	</g>
	<g class="st10">
		<path class="st11" d="M693,663.2c2.8,3.5,2.3,7.2,0.6,11.5c-1.3,3.3-3.4,8.3-6.7,10.1c-3.6,2-6.5-1.1-6.8-4.6
			c-0.2-2.3,0.8-4.7,1.6-6.9c1.8-4.5,4.9-10.7,10.6-10.1C692.5,663.4,692.8,663.3,693,663.2z"/>
		<linearGradient id="SVGID_21_" gradientUnits="userSpaceOnUse" x1="716.6426" y1="674.641" x2="824.6265" y2="610.5103">
			<stop  offset="0" style="stop-color:#EE827C"/>
			<stop  offset="0.3746" style="stop-color:#F19A97"/>
			<stop  offset="0.7478" style="stop-color:#F4ACAB"/>
			<stop  offset="1" style="stop-color:#F5B2B2"/>
		</linearGradient>
		<path class="st34" d="M819.8,657.7c3.6,9.7-1.3,20.7-9.7,26.4c-7.7,5.3-16.6,6.3-25.4,8.1c-25.3-14.8-59.5-19.7-86.2-17.8
			c0.6-1.9,1-3.9,1-5.9c0.2,0,0.3-0.1,0.5-0.3c6.2-6.4,12.8-10.1,21.5-11.5c0,0.1,0,0.3,0,0.4c0,1,0.5,2.1,1.5,2.5
			c4.8,2.1,11,2.3,14.2-2.6c2.7-4.2,1.2-10-3.8-11.3c-2.4-0.7-5.1,0.2-6.7,1.9c-0.4,0.1-0.8,0.2-1.1,0.5c-1.8,1.5-2.9,3.4-3.5,5.5
			c-8.6,0.6-17.3,5-22.6,11.8c-0.4-2.4-1.6-4.6-3.9-6.1c11.2-34.9,35.5-69.8,74.9-74.5c10.6-1.3,22.3-0.7,30.5,7.6
			c9.8,10.1,5.7,25.2,7.3,37.3C809.3,640.6,813.1,649.3,819.8,657.7z"/>
		<linearGradient id="SVGID_22_" gradientUnits="userSpaceOnUse" x1="704.7072" y1="698.7709" x2="798.3414" y2="779.3112">
			<stop  offset="0" style="stop-color:#EE827C"/>
			<stop  offset="0.3746" style="stop-color:#F19A97"/>
			<stop  offset="0.7478" style="stop-color:#F4ACAB"/>
			<stop  offset="1" style="stop-color:#F5B2B2"/>
		</linearGradient>
		<path class="st35" d="M804.7,716.4c10.4,20.8-11.5,29.4-20.5,42.5c-5.3,7.8-7.6,15.3-6.7,24.2c-5.8,16.6-31.3,15.5-44.9,8.6
			c-12.1-6-21.9-16-29-27.4c-13.9-22.2-16.6-48.7-19.7-74.1c2.4,0.2,4.6-0.7,6.4-2.3c0.4,9.3,5.4,18.5,13,23.8
			c-0.5,0.8-0.7,1.6-0.7,2.6c0,0.9,0.4,1.6,0.9,2.1c0.2,1.3,0.8,2.5,1.7,3.4c3,3,7.8,1.9,9.8-1.7c2-3.6,0.5-8.3-3.6-9.5
			c-1.7-0.5-3.7-0.2-5.4,0.6c-7.6-5.7-12-13.5-13-23.4c0-0.2-0.1-0.5-0.2-0.7c0.2-0.3,0.4-0.7,0.7-1c5.9,5.3,13.3,8.8,21,10.4
			c-0.4,0.7-0.4,1.5,0,2.1c0.7,1,1.6,1.8,2.6,2.3c0.7,0.4,1.3,0.7,2,0.6c1.6,0.2,3.2-0.1,4.6-1c3.3-2.1,4.1-6.8,2-10
			c-2.2-3.3-6.9-2.1-9.1,0.5c-0.6,0.7-1.1,1.5-1.4,2.4c-7.5-1.4-14.2-4.4-20.6-8.8c0,0-0.1,0-0.1,0c1-1.6,1.8-3.1,2.5-4.6
			c0.1-0.3,0.3-0.7,0.4-1c0.2,0.2,0.5,0.3,0.8,0.3c19.8,0.5,39.4,2.6,58.3,8.9c6.9,2.3,15.5,5.3,23.5,9.3c0.2,0.2,0.5,0.4,0.8,0.4
			C791.1,701.1,800.3,707.7,804.7,716.4z"/>
		<linearGradient id="SVGID_23_" gradientUnits="userSpaceOnUse" x1="682.4948" y1="639.7928" x2="651.372" y2="510.4848">
			<stop  offset="0" style="stop-color:#EE827C"/>
			<stop  offset="0.3746" style="stop-color:#F19A97"/>
			<stop  offset="0.7478" style="stop-color:#F4ACAB"/>
			<stop  offset="1" style="stop-color:#F5B2B2"/>
		</linearGradient>
		<path class="st36" d="M718.2,547c17.3,11,17.9,32.8,11.4,50.2c-19.2,15.2-33.1,38.3-37,61.6c-0.6,0.3-1,0.8-1.2,1.3
			c-1.4-0.3-2.7-0.1-4,0.3c-2.3-13.3-2.5-26.4-1.4-39.8c0.3-0.1,0.7-0.1,1-0.2c5.1-2,5.8-9.5,1.4-12.6c-4.6-3.3-12.4,0.4-11.3,6.4
			c0.1,0.7,0.4,1.1,0.8,1.5c0.7,2.5,2.8,4.4,5.4,5c-1.4,13.5-0.3,27,2.6,40.3c-0.8,0.4-1.5,0.9-2.2,1.4c-9.9-12.4-16-25.5-18.2-41.2
			c3.4-0.5,5.9-4.6,4.9-8.1c-1.5-5.1-8.4-6-11.9-2.6c-2,1.9-2.7,5.2-0.7,7.3c0.8,0.8,1.9,1.3,2.9,1.3c0.2,0.3,0.5,0.6,0.7,0.8
			c0.6,8.6,2.7,17,6.2,24.9c-7.8-7.4-17.1-13.5-26-19.2c-2.4-1.5-4.8-3-7.3-4.4c-20.9-15.8-49.5-42.2-23.7-66.4
			c19.9-18.6,44.5-4.2,67.3-7.7c4.8,0.5,8.2-0.8,13.2-2.5C700.8,541.6,709.4,541.3,718.2,547z"/>
		<linearGradient id="SVGID_24_" gradientUnits="userSpaceOnUse" x1="666.0888" y1="713.2698" x2="645.2772" y2="816.5732">
			<stop  offset="0" style="stop-color:#EE827C"/>
			<stop  offset="0.3746" style="stop-color:#F19A97"/>
			<stop  offset="0.7478" style="stop-color:#F4ACAB"/>
			<stop  offset="1" style="stop-color:#F5B2B2"/>
		</linearGradient>
		<path class="st37" d="M706.4,776.9c2.1,25.3-26.3,34.1-44.7,21.3c-0.5-0.3-1-0.2-1.3,0.1c-3.8-1.6-7.9-2.1-12.7-2.5
			c-25.1-1.9-57.4-7.8-42.8-42.3c3.5-8.2,8.5-15.8,14.5-22.9c1-0.2,1.6-1,1.6-1.8c11-12.4,24.9-23,38.9-31.9
			c-7.7,6.3-13.9,14.1-16.3,23.6c-4.1,1-7.7,5.2-5.9,9.5c0.5,1.1,1.2,1.7,2.1,2c2.1,3.1,7,3.4,9.9,0.4c3.4-3.5,2.9-9.6-1.5-11.6
			c5-14.6,16.8-22.6,29.3-30.8c-8.1,10.4-12.8,24.1-11.9,37.3c-1.9,0.7-3.6,2-4.4,3.8c-1.1,2.2-1.2,5.2,0.8,6.9
			c1.1,1,2.4,1.3,3.7,1.2c0.5,0.2,1,0.3,1.6,0.3c2.6-0.1,4.7-2,5.8-4.2c0.5-1,1-2.1,1.2-3.2c0.4-1.8-0.6-3.2-2-4.2
			c-0.7-0.5-1.5-0.8-2.4-0.9c0.3-12.8,3-23.9,10-34.9C682.4,721.6,687.4,753.9,706.4,776.9z"/>
		<linearGradient id="SVGID_25_" gradientUnits="userSpaceOnUse" x1="658.5833" y1="675.317" x2="545.3179" y2="669.0811">
			<stop  offset="0" style="stop-color:#EE827C"/>
			<stop  offset="0.3746" style="stop-color:#F19A97"/>
			<stop  offset="0.7478" style="stop-color:#F4ACAB"/>
			<stop  offset="1" style="stop-color:#F5B2B2"/>
		</linearGradient>
		<path class="st38" d="M679.5,667.1c-0.2,0.3-0.4,0.7-0.6,1c-10.8-10.9-26-19.2-41.2-22.2c0.2-1.1,0.3-2.1,0.1-3.3
			c-0.2-1.1-1.3-2.1-2.3-2.3c-3.6-0.8-7.3-1.5-10.8,0.2c-3,1.4-5,4.3-5.1,7.7c0,1.6,1.1,2.7,2.5,3.3c1.6,0.7,3.1,1.1,4.8,1.2
			c0.5,0,0.9,0,1.2-0.2c3.3,0.9,6.3-0.4,8.1-2.9c15.5,4.6,28.5,10.6,41.8,20.4c-0.4,0.8-0.7,1.6-1,2.4c-14.4-2.3-30-1.3-44.5,1.4
			c-0.1-0.2-0.2-0.5-0.3-0.7c-2.8-4.2-9.3-5.3-12.6-1.1c-3.3,4.2-1.5,11,3.7,12.5c1.1,0.3,2,0,2.7-0.6c0.6,0,1.2-0.1,1.8-0.2
			c2.9-0.7,4.9-3.1,5.4-5.7c14.4-2,28.5-2.6,43.1-3.3c-0.8,3.4-0.9,6.8,0.1,9.5c-0.3-0.1-0.7-0.1-1,0.1
			c-19.6,8.3-44.5,23.5-61.3,42.8c-16.2,1-36.4,3.7-49.3-6.2c-10.4-8-9.5-18.5-6.4-29.9c0.4-1.5,0.7-2.8,0.8-4.1
			c0.6,0.1,1.3-0.3,1.3-1c1.4-12.1-3.7-21.2-5.7-32.9c-4.9-28.2,21-40.8,45.9-37.8C628.4,618.9,665.9,642.3,679.5,667.1z"/>
		<path class="st17" d="M722.2,682.7c-21,11.6-30.6,37-41.2,58c-16.2-14.8-33.3-28.8-52.8-38.9c-3.2-1.7-6.7,2.4-4,5.1
			c17.4,17,36.4,32.3,53.9,49.2c3.1,3,8.3,2.4,10.4-1.3c13-22.5,23-43.5,41-62.5C734.4,687.3,728.3,679.3,722.2,682.7z"/>
		<path class="st17" d="M767.9,764.6c-24.2-7.8-47-14.5-72.8-10.5c-5.6,0.9-3.5,8.6,1.2,9.1c13.9,1.5,27.5,2.7,41.1,6
			c9,2.2,19.6,8.5,28.7,8.7C774,778,775.1,766.9,767.9,764.6z"/>
		<path class="st18" d="M822,656.7c4.4,7.7,2.4,16.9-3.1,24.2c-6.6,8.6-18.2,12.8-29.3,14.4c5.2,3.5,9.9,7.3,14,11.8
			c6.4,7,12.8,18.2,8.8,28c-2.4,5.9-9.3,10.1-13.7,14.3c-10.4,10-18.1,21.3-17.4,36.3c0,1-0.8,1.6-1.7,1.6
			c-4.7,21.3-41.9,14.3-56.5,4.6c-4.6-3-8.6-6.4-12.2-10.1c-1.1,21.7-24.7,31.3-43.2,23c-0.3,0.3-0.8,0.4-1.2,0.2
			c-17.4-11-40.4,0-58.2-12.5c-10-7-14.5-17.9-12.5-30c1.9-11.1,7.3-21.7,15-31.3c-16.4,1.2-35.5,2.9-48.6-7.1
			c-5.4-4.1-9.7-10-10.5-16.8c-1.3-10.4,6.7-18.8,5.7-29.2c0-0.3,0.1-0.4,0.2-0.6c-2.9-15.2-12.2-30.7-5.9-45.8
			c5.6-13.5,20.7-20.7,34.4-22.3c10.8-1.3,21.1,0.3,31,3.8c-15-12.6-25.9-29.6-18.2-49.6c14.1-36.7,56.7-16.5,83.8-20.6
			c0.7-0.1,1.3,0.2,1.6,0.7c7.5-1.7,14.7-6.3,23-5.2c7.4,1,14.6,4.6,20,9.8c12,11.6,13.5,28.8,9.3,44.1c10-6.6,21.2-11.1,33.1-12.5
			c13.5-1.7,29.5,0.8,37.6,13c3.7,5.6,4.4,12,4.8,18.5c1.2,17.6,0.7,29.2,10.2,44.9C821.9,656.5,821.9,656.7,822,656.7z
			 M810.1,684.1c8.4-5.7,13.4-16.8,9.7-26.4c-6.7-8.3-10.4-17.1-11.8-27.9c-1.5-12.1,2.6-27.2-7.3-37.3c-8.1-8.3-19.9-8.9-30.5-7.6
			c-39.4,4.7-63.6,39.6-74.9,74.5c2.3,1.5,3.4,3.7,3.9,6.1c5.3-6.8,14-11.2,22.6-11.8c0.6-2.1,1.7-4.1,3.5-5.5
			c0.4-0.3,0.8-0.5,1.1-0.5c1.6-1.7,4.3-2.6,6.7-1.9c5.1,1.3,6.5,7.1,3.8,11.3c-3.2,4.9-9.4,4.8-14.2,2.6c-1-0.4-1.4-1.6-1.5-2.5
			c0-0.1,0-0.3,0-0.4c-8.6,1.4-15.3,5.2-21.5,11.5c-0.2,0.2-0.3,0.2-0.5,0.3c-0.1,2-0.5,4-1,5.9c26.7-2,60.9,2.9,86.2,17.8
			C793.5,690.4,802.3,689.4,810.1,684.1z M784.2,759c9-13.2,30.9-21.7,20.5-42.5c-4.4-8.7-13.6-15.3-23.7-20.3
			c-0.3,0-0.6-0.2-0.8-0.4c-8.1-4-16.6-6.9-23.5-9.3c-18.9-6.3-38.5-8.3-58.3-8.9c-0.3,0-0.6-0.1-0.8-0.3c-0.2,0.3-0.3,0.7-0.4,1
			c-0.7,1.4-1.5,3-2.5,4.6c0,0,0,0,0.1,0c6.4,4.4,13,7.4,20.6,8.8c0.3-0.8,0.8-1.6,1.4-2.4c2.2-2.6,6.9-3.9,9.1-0.5
			c2.1,3.2,1.4,7.9-2,10c-1.4,0.9-3.1,1.2-4.6,1c-0.7,0-1.3-0.2-2-0.6c-1-0.5-1.9-1.2-2.6-2.3c-0.5-0.7-0.4-1.5,0-2.1
			c-7.7-1.6-15.2-5.1-21-10.4c-0.3,0.3-0.5,0.7-0.7,1c0.1,0.2,0.2,0.4,0.2,0.7c1,9.9,5.4,17.7,13,23.4c1.7-0.8,3.7-1.1,5.4-0.6
			c4.1,1.2,5.6,5.9,3.6,9.5c-2,3.6-6.8,4.7-9.8,1.7c-0.9-0.9-1.5-2.1-1.7-3.4c-0.5-0.5-0.8-1.2-0.9-2.1c0-1,0.2-1.9,0.7-2.6
			c-7.6-5.4-12.6-14.5-13-23.8c-1.8,1.5-3.9,2.4-6.4,2.3c3,25.4,5.8,51.9,19.7,74.1c7.1,11.4,16.9,21.3,29,27.4
			c13.6,6.8,39.1,7.9,44.9-8.6C776.6,774.3,778.9,766.7,784.2,759z M729.7,597.2c6.5-17.4,5.8-39.2-11.4-50.2
			c-8.8-5.7-17.4-5.4-26.9-2.3c-5,1.7-8.5,3.1-13.2,2.5c-22.8,3.5-47.5-10.9-67.3,7.7c-25.8,24.2,2.8,50.6,23.7,66.4
			c2.5,1.4,4.9,2.8,7.3,4.4c8.9,5.6,18.1,11.8,26,19.2c-3.6-7.9-5.6-16.3-6.2-24.9c-0.3-0.2-0.5-0.5-0.7-0.8c-1.1,0-2.1-0.4-2.9-1.3
			c-2.1-2.1-1.3-5.5,0.7-7.3c3.5-3.4,10.5-2.5,11.9,2.6c1,3.4-1.5,7.5-4.9,8.1c2.2,15.6,8.3,28.8,18.2,41.2c0.7-0.5,1.5-1,2.2-1.4
			c-2.9-13.3-4-26.8-2.6-40.3c-2.5-0.6-4.7-2.5-5.4-5c-0.4-0.3-0.7-0.8-0.8-1.5c-1.1-6,6.7-9.6,11.3-6.4c4.4,3.1,3.7,10.6-1.4,12.6
			c-0.3,0.1-0.7,0.1-1,0.2c-1.1,13.4-1,26.5,1.4,39.8c1.3-0.4,2.6-0.6,4-0.3c0.2-0.6,0.6-1.1,1.2-1.3
			C696.6,635.5,710.4,612.4,729.7,597.2z M661.7,798.3c18.4,12.8,46.8,3.9,44.7-21.3c-19-23-24-55.3-26.7-84.8c-7,11-9.8,22-10,34.9
			c0.8,0.2,1.6,0.4,2.4,0.9c1.5,1,2.4,2.4,2,4.2c-0.2,1.1-0.7,2.2-1.2,3.2c-1.1,2.2-3.2,4.2-5.8,4.2c-0.6,0-1.1-0.1-1.6-0.3
			c-1.3,0.1-2.6-0.2-3.7-1.2c-2-1.7-1.9-4.7-0.8-6.9c0.9-1.8,2.6-3.1,4.4-3.8c-0.9-13.2,3.8-26.9,11.9-37.3
			c-12.6,8.2-24.4,16.3-29.3,30.8c4.4,1.9,4.9,8,1.5,11.6c-3,3-7.8,2.8-9.9-0.4c-0.9-0.3-1.6-0.9-2.1-2c-1.8-4.3,1.8-8.4,5.9-9.5
			c2.4-9.5,8.6-17.4,16.3-23.6c-13.9,8.8-27.9,19.4-38.9,31.9c0,0.8-0.5,1.7-1.6,1.8c-6,7.1-11.1,14.7-14.5,22.9
			c-14.6,34.5,17.7,40.4,42.8,42.3c4.9,0.4,9,0.9,12.7,2.5C660.7,798.1,661.2,797.9,661.7,798.3z M693.6,674.7
			c1.8-4.3,2.3-8-0.6-11.5c-0.2,0.1-0.5,0.2-0.8,0.2c-5.7-0.7-8.8,5.6-10.6,10.1c-0.8,2.1-1.8,4.6-1.6,6.9c0.3,3.5,3.2,6.6,6.8,4.6
			C690.2,683,692.2,678,693.6,674.7z M678.9,668.1c0.2-0.3,0.4-0.7,0.6-1c-13.7-24.7-51.1-48.2-78.8-51.7
			c-24.9-3.1-50.7,9.5-45.9,37.8c2,11.6,7.1,20.7,5.7,32.9c-0.1,0.8-0.7,1.1-1.3,1c-0.2,1.3-0.4,2.6-0.8,4.1
			c-3.1,11.4-4,21.9,6.4,29.9c12.9,9.9,33.1,7.2,49.3,6.2c16.8-19.3,41.7-34.5,61.3-42.8c0.3-0.2,0.7-0.2,1-0.1
			c-1-2.8-1-6.2-0.1-9.5c-14.6,0.7-28.7,1.3-43.1,3.3c-0.5,2.6-2.5,4.9-5.4,5.7c-0.6,0.2-1.2,0.2-1.8,0.2c-0.7,0.6-1.6,0.9-2.7,0.6
			c-5.2-1.6-7-8.3-3.7-12.5c3.3-4.2,9.8-3.2,12.6,1.1c0.2,0.2,0.2,0.4,0.3,0.7c14.5-2.7,30.1-3.7,44.5-1.4c0.3-0.8,0.6-1.6,1-2.4
			c-13.3-9.8-26.3-15.8-41.8-20.4c-1.8,2.4-4.8,3.8-8.1,2.9c-0.3,0.2-0.7,0.2-1.2,0.2c-1.7-0.2-3.2-0.6-4.8-1.2
			c-1.4-0.5-2.5-1.6-2.5-3.3c0-3.4,2.1-6.3,5.1-7.7c3.4-1.6,7.2-1,10.8-0.2c1,0.2,2.1,1.2,2.3,2.3c0.2,1.1,0.1,2.2-0.1,3.3
			C652.9,648.9,668.2,657.2,678.9,668.1z"/>
	</g>
	<g class="st10">
		<path class="st11" d="M1098.8,155.6c2.8,3.5,2.3,7.2,0.6,11.5c-1.3,3.3-3.4,8.3-6.7,10.1c-3.6,2-6.5-1.1-6.8-4.6
			c-0.2-2.3,0.8-4.7,1.6-6.9c1.8-4.5,4.9-10.7,10.6-10.1C1098.3,155.8,1098.5,155.7,1098.8,155.6z"/>
		<linearGradient id="SVGID_26_" gradientUnits="userSpaceOnUse" x1="1122.4097" y1="167.0587" x2="1230.3936" y2="102.9279">
			<stop  offset="0" style="stop-color:#EE827C"/>
			<stop  offset="0.3746" style="stop-color:#F19A97"/>
			<stop  offset="0.7478" style="stop-color:#F4ACAB"/>
			<stop  offset="1" style="stop-color:#F5B2B2"/>
		</linearGradient>
		<path class="st39" d="M1225.6,150.1c3.6,9.7-1.3,20.7-9.7,26.4c-7.7,5.3-16.6,6.3-25.4,8.1c-25.3-14.8-59.5-19.7-86.2-17.8
			c0.6-1.9,1-3.9,1-5.9c0.2,0,0.3-0.1,0.5-0.3c6.2-6.4,12.8-10.1,21.5-11.5c0,0.1,0,0.3,0,0.4c0,1,0.5,2.1,1.5,2.5
			c4.8,2.1,11,2.3,14.2-2.6c2.7-4.2,1.2-10-3.8-11.3c-2.4-0.7-5.1,0.2-6.7,1.9c-0.4,0.1-0.8,0.2-1.1,0.5c-1.8,1.5-2.9,3.4-3.5,5.5
			c-8.6,0.6-17.3,5-22.6,11.8c-0.4-2.4-1.6-4.6-3.9-6.1c11.2-34.9,35.5-69.8,74.9-74.5c10.6-1.3,22.3-0.7,30.5,7.6
			c9.8,10.1,5.7,25.2,7.3,37.3C1215.1,133,1218.9,141.8,1225.6,150.1z"/>
		<linearGradient id="SVGID_27_" gradientUnits="userSpaceOnUse" x1="1110.4742" y1="191.1886" x2="1204.1085" y2="271.7289">
			<stop  offset="0" style="stop-color:#EE827C"/>
			<stop  offset="0.3746" style="stop-color:#F19A97"/>
			<stop  offset="0.7478" style="stop-color:#F4ACAB"/>
			<stop  offset="1" style="stop-color:#F5B2B2"/>
		</linearGradient>
		<path class="st40" d="M1210.4,208.8c10.4,20.8-11.5,29.4-20.5,42.5c-5.3,7.8-7.6,15.3-6.7,24.2c-5.8,16.6-31.3,15.5-44.9,8.6
			c-12.1-6-21.9-16-29-27.4c-13.9-22.2-16.6-48.7-19.7-74.1c2.4,0.2,4.6-0.7,6.4-2.3c0.4,9.3,5.4,18.5,13,23.8
			c-0.5,0.8-0.7,1.6-0.7,2.6c0,0.9,0.4,1.6,0.9,2.1c0.2,1.3,0.8,2.5,1.7,3.4c3,3,7.8,1.9,9.8-1.7c2-3.6,0.5-8.3-3.6-9.5
			c-1.7-0.5-3.7-0.2-5.4,0.6c-7.6-5.7-12-13.5-13-23.4c0-0.2-0.1-0.5-0.2-0.7c0.2-0.3,0.4-0.7,0.7-1c5.9,5.3,13.3,8.8,21,10.4
			c-0.4,0.7-0.4,1.5,0,2.1c0.7,1,1.6,1.8,2.6,2.3c0.7,0.4,1.3,0.7,2,0.6c1.6,0.2,3.2-0.1,4.6-1c3.3-2.1,4.1-6.8,2-10
			c-2.2-3.3-6.9-2.1-9.1,0.5c-0.6,0.7-1.1,1.5-1.4,2.4c-7.5-1.4-14.2-4.4-20.6-8.8c0,0-0.1,0-0.1,0c1-1.6,1.8-3.1,2.5-4.6
			c0.1-0.3,0.3-0.7,0.4-1c0.2,0.2,0.5,0.3,0.8,0.3c19.8,0.5,39.4,2.6,58.3,8.9c6.9,2.3,15.5,5.3,23.5,9.3c0.2,0.2,0.5,0.4,0.8,0.4
			C1196.8,193.5,1206,200.1,1210.4,208.8z"/>
		<linearGradient id="SVGID_28_" gradientUnits="userSpaceOnUse" x1="1088.2618" y1="132.2105" x2="1057.139" y2="2.9025">
			<stop  offset="0" style="stop-color:#EE827C"/>
			<stop  offset="0.3746" style="stop-color:#F19A97"/>
			<stop  offset="0.7478" style="stop-color:#F4ACAB"/>
			<stop  offset="1" style="stop-color:#F5B2B2"/>
		</linearGradient>
		<path class="st41" d="M1124,39.4c17.3,11,17.9,32.8,11.4,50.2c-19.2,15.2-33.1,38.3-37,61.6c-0.6,0.3-1,0.8-1.2,1.3
			c-1.4-0.3-2.7-0.1-4,0.3c-2.3-13.3-2.5-26.4-1.4-39.8c0.3-0.1,0.7-0.1,1-0.2c5.1-2,5.8-9.5,1.4-12.6c-4.6-3.3-12.4,0.4-11.3,6.4
			c0.1,0.7,0.4,1.1,0.8,1.5c0.7,2.5,2.8,4.4,5.4,5c-1.4,13.5-0.3,27,2.6,40.3c-0.8,0.4-1.5,0.9-2.2,1.4c-9.9-12.4-16-25.5-18.2-41.2
			c3.4-0.5,5.9-4.6,4.9-8.1c-1.5-5.1-8.4-6-11.9-2.6c-2,1.9-2.7,5.2-0.7,7.3c0.8,0.8,1.9,1.3,2.9,1.3c0.2,0.3,0.5,0.6,0.7,0.8
			c0.6,8.6,2.7,17,6.2,24.9c-7.8-7.4-17.1-13.5-26-19.2c-2.4-1.5-4.8-3-7.3-4.4c-20.9-15.8-49.5-42.2-23.7-66.4
			c19.9-18.6,44.5-4.2,67.3-7.7c4.8,0.5,8.2-0.8,13.2-2.5C1106.6,34,1115.2,33.8,1124,39.4z"/>
		<linearGradient id="SVGID_29_" gradientUnits="userSpaceOnUse" x1="1071.8558" y1="205.6875" x2="1051.0443" y2="308.9909">
			<stop  offset="0" style="stop-color:#EE827C"/>
			<stop  offset="0.3746" style="stop-color:#F19A97"/>
			<stop  offset="0.7478" style="stop-color:#F4ACAB"/>
			<stop  offset="1" style="stop-color:#F5B2B2"/>
		</linearGradient>
		<path class="st42" d="M1112.2,269.3c2.1,25.3-26.3,34.1-44.7,21.3c-0.5-0.3-1-0.2-1.3,0.1c-3.8-1.6-7.9-2.1-12.7-2.5
			c-25.1-1.9-57.4-7.8-42.8-42.3c3.5-8.2,8.5-15.8,14.5-22.9c1-0.2,1.6-1,1.6-1.8c11-12.4,24.9-23,38.9-31.9
			c-7.7,6.3-13.9,14.1-16.3,23.6c-4.1,1-7.7,5.2-5.9,9.5c0.5,1.1,1.2,1.7,2.1,2c2.1,3.1,7,3.4,9.9,0.4c3.4-3.5,2.9-9.6-1.5-11.6
			c5-14.6,16.8-22.6,29.3-30.8c-8.1,10.4-12.8,24.1-11.9,37.3c-1.9,0.7-3.6,2-4.4,3.8c-1.1,2.2-1.2,5.2,0.8,6.9
			c1.1,1,2.4,1.3,3.7,1.2c0.5,0.2,1,0.3,1.6,0.3c2.6-0.1,4.7-2,5.8-4.2c0.5-1,1-2.1,1.2-3.2c0.4-1.8-0.6-3.2-2-4.2
			c-0.7-0.5-1.5-0.8-2.4-0.9c0.3-12.8,3-23.9,10-34.9C1088.1,214,1093.2,246.4,1112.2,269.3z"/>
		<linearGradient id="SVGID_30_" gradientUnits="userSpaceOnUse" x1="1064.3503" y1="167.7346" x2="951.085" y2="161.4988">
			<stop  offset="0" style="stop-color:#EE827C"/>
			<stop  offset="0.3746" style="stop-color:#F19A97"/>
			<stop  offset="0.7478" style="stop-color:#F4ACAB"/>
			<stop  offset="1" style="stop-color:#F5B2B2"/>
		</linearGradient>
		<path class="st43" d="M1085.3,159.5c-0.2,0.3-0.4,0.7-0.6,1c-10.8-10.9-26-19.2-41.2-22.2c0.2-1.1,0.3-2.1,0.1-3.3
			c-0.2-1.1-1.3-2.1-2.3-2.3c-3.6-0.8-7.3-1.5-10.8,0.2c-3,1.4-5,4.3-5.1,7.7c0,1.6,1.1,2.7,2.5,3.3c1.6,0.7,3.1,1.1,4.8,1.2
			c0.5,0,0.9,0,1.2-0.2c3.3,0.9,6.3-0.4,8.1-2.9c15.5,4.6,28.5,10.6,41.8,20.4c-0.4,0.8-0.7,1.6-1,2.4c-14.4-2.3-30-1.3-44.5,1.4
			c-0.1-0.2-0.2-0.5-0.3-0.7c-2.8-4.2-9.3-5.3-12.6-1.1c-3.3,4.2-1.5,11,3.7,12.5c1.1,0.3,2,0,2.7-0.6c0.6,0,1.2-0.1,1.8-0.2
			c2.9-0.7,4.9-3.1,5.4-5.7c14.4-2,28.5-2.6,43.1-3.3c-0.8,3.4-0.9,6.8,0.1,9.5c-0.3-0.1-0.7-0.1-1,0.1
			c-19.6,8.3-44.5,23.5-61.3,42.8c-16.2,1-36.4,3.7-49.3-6.2c-10.4-8-9.5-18.5-6.4-29.9c0.4-1.5,0.7-2.8,0.8-4.1
			c0.6,0.1,1.3-0.3,1.3-1c1.4-12.1-3.7-21.2-5.7-32.9c-4.9-28.2,21-40.8,45.9-37.8C1034.2,111.3,1071.6,134.8,1085.3,159.5z"/>
		<path class="st17" d="M1128,175.1c-21,11.6-30.6,37-41.2,58c-16.2-14.8-33.3-28.8-52.8-38.9c-3.2-1.7-6.7,2.4-4,5.1
			c17.4,17,36.4,32.3,53.9,49.2c3.1,3,8.3,2.4,10.4-1.3c13-22.5,23-43.5,41-62.5C1140.1,179.7,1134.1,171.8,1128,175.1z"/>
		<path class="st17" d="M1173.7,257c-24.2-7.8-47-14.5-72.8-10.5c-5.6,0.9-3.5,8.6,1.2,9.1c13.9,1.5,27.5,2.7,41.1,6
			c9,2.2,19.6,8.5,28.7,8.7C1179.8,270.4,1180.8,259.3,1173.7,257z"/>
		<path class="st18" d="M1227.7,149.2c4.4,7.7,2.4,16.9-3.1,24.2c-6.6,8.6-18.2,12.8-29.3,14.4c5.2,3.5,9.9,7.3,14,11.8
			c6.4,7,12.8,18.2,8.8,28c-2.4,5.9-9.3,10.1-13.7,14.3c-10.4,10-18.1,21.3-17.4,36.3c0,1-0.8,1.6-1.7,1.6
			c-4.7,21.3-41.9,14.3-56.5,4.6c-4.6-3-8.6-6.4-12.2-10.1c-1.1,21.7-24.7,31.3-43.2,23c-0.3,0.3-0.8,0.4-1.2,0.2
			c-17.4-11-40.4,0-58.2-12.5c-10-7-14.5-17.9-12.5-30c1.9-11.1,7.3-21.7,15-31.3c-16.4,1.2-35.5,2.9-48.6-7.1
			c-5.4-4.1-9.7-10-10.5-16.8c-1.3-10.4,6.7-18.8,5.7-29.2c0-0.3,0.1-0.4,0.2-0.6c-2.9-15.2-12.2-30.7-5.9-45.8
			c5.6-13.5,20.7-20.7,34.4-22.3c10.8-1.3,21.1,0.3,31,3.8c-15-12.6-25.9-29.6-18.2-49.6c14.1-36.7,56.7-16.5,83.8-20.6
			c0.7-0.1,1.3,0.2,1.6,0.7c7.5-1.7,14.7-6.3,23-5.2c7.4,1,14.6,4.6,20,9.8c12,11.6,13.5,28.8,9.3,44.1c10-6.6,21.2-11.1,33.1-12.5
			c13.5-1.7,29.5,0.8,37.6,13c3.7,5.6,4.4,12,4.8,18.5c1.2,17.6,0.7,29.2,10.2,44.9C1227.7,149,1227.7,149.1,1227.7,149.2z
			 M1215.8,176.5c8.4-5.7,13.4-16.8,9.7-26.4c-6.7-8.3-10.4-17.1-11.8-27.9c-1.5-12.1,2.6-27.2-7.3-37.3c-8.1-8.3-19.9-8.9-30.5-7.6
			c-39.4,4.7-63.6,39.6-74.9,74.5c2.3,1.5,3.4,3.7,3.9,6.1c5.3-6.8,14-11.2,22.6-11.8c0.6-2.1,1.7-4.1,3.5-5.5
			c0.4-0.3,0.8-0.5,1.1-0.5c1.6-1.7,4.3-2.6,6.7-1.9c5.1,1.3,6.5,7.1,3.8,11.3c-3.2,4.9-9.4,4.8-14.2,2.6c-1-0.4-1.4-1.6-1.5-2.5
			c0-0.1,0-0.3,0-0.4c-8.6,1.4-15.3,5.2-21.5,11.5c-0.2,0.2-0.3,0.2-0.5,0.3c-0.1,2-0.5,4-1,5.9c26.7-2,60.9,2.9,86.2,17.8
			C1199.2,182.8,1208.1,181.8,1215.8,176.5z M1190,251.4c9-13.2,30.9-21.7,20.5-42.5c-4.4-8.7-13.6-15.3-23.7-20.3
			c-0.3,0-0.6-0.2-0.8-0.4c-8.1-4-16.6-6.9-23.5-9.3c-18.9-6.3-38.5-8.3-58.3-8.9c-0.3,0-0.6-0.1-0.8-0.3c-0.2,0.3-0.3,0.7-0.4,1
			c-0.7,1.4-1.5,3-2.5,4.6c0,0,0,0,0.1,0c6.4,4.4,13,7.4,20.6,8.8c0.3-0.8,0.8-1.6,1.4-2.4c2.2-2.6,6.9-3.9,9.1-0.5
			c2.1,3.2,1.4,7.9-2,10c-1.4,0.9-3.1,1.2-4.6,1c-0.7,0-1.3-0.2-2-0.6c-1-0.5-1.9-1.2-2.6-2.3c-0.5-0.7-0.4-1.5,0-2.1
			c-7.7-1.6-15.2-5.1-21-10.4c-0.3,0.3-0.5,0.7-0.7,1c0.1,0.2,0.2,0.4,0.2,0.7c1,9.9,5.4,17.7,13,23.4c1.7-0.8,3.7-1.1,5.4-0.6
			c4.1,1.2,5.6,5.9,3.6,9.5c-2,3.6-6.8,4.7-9.8,1.7c-0.9-0.9-1.5-2.1-1.7-3.4c-0.5-0.5-0.8-1.2-0.9-2.1c0-1,0.2-1.9,0.7-2.6
			c-7.6-5.4-12.6-14.5-13-23.8c-1.8,1.5-3.9,2.4-6.4,2.3c3,25.4,5.8,51.9,19.7,74.1c7.1,11.4,16.9,21.3,29,27.4
			c13.6,6.8,39.1,7.9,44.9-8.6C1182.4,266.7,1184.7,259.1,1190,251.4z M1135.5,89.6c6.5-17.4,5.8-39.2-11.4-50.2
			c-8.8-5.7-17.4-5.4-26.9-2.3c-5,1.7-8.5,3.1-13.2,2.5c-22.8,3.5-47.5-10.9-67.3,7.7c-25.8,24.2,2.8,50.6,23.7,66.4
			c2.5,1.4,4.9,2.8,7.3,4.4c8.9,5.6,18.1,11.8,26,19.2c-3.6-7.9-5.6-16.3-6.2-24.9c-0.3-0.2-0.5-0.5-0.7-0.8c-1.1,0-2.1-0.4-2.9-1.3
			c-2.1-2.1-1.3-5.5,0.7-7.3c3.5-3.4,10.5-2.5,11.9,2.6c1,3.4-1.5,7.5-4.9,8.1c2.2,15.6,8.3,28.8,18.2,41.2c0.7-0.5,1.5-1,2.2-1.4
			c-2.9-13.3-4-26.8-2.6-40.3c-2.5-0.6-4.7-2.5-5.4-5c-0.4-0.3-0.7-0.8-0.8-1.5c-1.1-6,6.7-9.6,11.3-6.4c4.4,3.1,3.7,10.6-1.4,12.6
			c-0.3,0.1-0.7,0.1-1,0.2c-1.1,13.4-1,26.5,1.4,39.8c1.3-0.4,2.6-0.6,4-0.3c0.2-0.6,0.6-1.1,1.2-1.3
			C1102.4,127.9,1116.2,104.8,1135.5,89.6z M1067.4,290.7c18.4,12.8,46.8,3.9,44.7-21.3c-19-23-24-55.3-26.7-84.8
			c-7,11-9.8,22-10,34.9c0.8,0.2,1.6,0.4,2.4,0.9c1.5,1,2.4,2.4,2,4.2c-0.2,1.1-0.7,2.2-1.2,3.2c-1.1,2.2-3.2,4.2-5.8,4.2
			c-0.6,0-1.1-0.1-1.6-0.3c-1.3,0.1-2.6-0.2-3.7-1.2c-2-1.7-1.9-4.7-0.8-6.9c0.9-1.8,2.6-3.1,4.4-3.8c-0.9-13.2,3.8-26.9,11.9-37.3
			c-12.6,8.2-24.4,16.3-29.3,30.8c4.4,1.9,4.9,8,1.5,11.6c-3,3-7.8,2.8-9.9-0.4c-0.9-0.3-1.6-0.9-2.1-2c-1.8-4.3,1.8-8.4,5.9-9.5
			c2.4-9.5,8.6-17.4,16.3-23.6c-13.9,8.8-27.9,19.4-38.9,31.9c0,0.8-0.5,1.7-1.6,1.8c-6,7.1-11.1,14.7-14.5,22.9
			c-14.6,34.5,17.7,40.4,42.8,42.3c4.9,0.4,9,0.9,12.7,2.5C1066.5,290.5,1067,290.4,1067.4,290.7z M1099.3,167.1
			c1.8-4.3,2.3-8-0.6-11.5c-0.2,0.1-0.5,0.2-0.8,0.2c-5.7-0.7-8.8,5.6-10.6,10.1c-0.8,2.1-1.8,4.6-1.6,6.9c0.3,3.5,3.2,6.6,6.8,4.6
			C1095.9,175.4,1098,170.5,1099.3,167.1z M1084.7,160.5c0.2-0.3,0.4-0.7,0.6-1c-13.7-24.7-51.1-48.2-78.8-51.7
			c-24.9-3.1-50.7,9.5-45.9,37.8c2,11.6,7.1,20.7,5.7,32.9c-0.1,0.8-0.7,1.1-1.3,1c-0.2,1.3-0.4,2.6-0.8,4.1
			c-3.1,11.4-4,21.9,6.4,29.9c12.9,9.9,33.1,7.2,49.3,6.2c16.8-19.3,41.7-34.5,61.3-42.8c0.3-0.2,0.7-0.2,1-0.1
			c-1-2.8-1-6.2-0.1-9.5c-14.6,0.7-28.7,1.3-43.1,3.3c-0.5,2.6-2.5,4.9-5.4,5.7c-0.6,0.2-1.2,0.2-1.8,0.2c-0.7,0.6-1.6,0.9-2.7,0.6
			c-5.2-1.6-7-8.3-3.7-12.5c3.3-4.2,9.8-3.2,12.6,1.1c0.2,0.2,0.2,0.4,0.3,0.7c14.5-2.7,30.1-3.7,44.5-1.4c0.3-0.8,0.6-1.6,1-2.4
			c-13.3-9.8-26.3-15.8-41.8-20.4c-1.8,2.4-4.8,3.8-8.1,2.9c-0.3,0.2-0.7,0.2-1.2,0.2c-1.7-0.2-3.2-0.6-4.8-1.2
			c-1.4-0.5-2.5-1.6-2.5-3.3c0-3.4,2.1-6.3,5.1-7.7c3.4-1.6,7.2-1,10.8-0.2c1,0.2,2.1,1.2,2.3,2.3c0.2,1.1,0.1,2.2-0.1,3.3
			C1058.7,141.3,1073.9,149.6,1084.7,160.5z"/>
	</g>
	<g class="st10">
		<path class="st11" d="M4880.9,232.2c5,6.3,4.2,12.8,1,20.5c-2.4,5.9-6.1,14.8-11.9,18.1c-6.5,3.6-11.6-1.9-12.1-8.1
			c-0.3-4.2,1.4-8.5,2.8-12.3c3.1-8,8.7-19.1,18.8-17.9C4880,232.6,4880.5,232.4,4880.9,232.2z"/>
		<linearGradient id="SVGID_31_" gradientUnits="userSpaceOnUse" x1="4923.1099" y1="252.6434" x2="5115.6899" y2="138.2717">
			<stop  offset="0" style="stop-color:#EE827C"/>
			<stop  offset="0.3746" style="stop-color:#F19A97"/>
			<stop  offset="0.7478" style="stop-color:#F4ACAB"/>
			<stop  offset="1" style="stop-color:#F5B2B2"/>
		</linearGradient>
		<path class="st44" d="M5107.1,222.4c6.5,17.3-2.3,36.9-17.3,47.1c-13.8,9.4-29.6,11.2-45.3,14.5c-45.2-26.5-106.1-35.2-153.7-31.7
			c1-3.4,1.7-7,1.8-10.5c0.3-0.1,0.5-0.2,0.8-0.5c11.1-11.3,22.9-18.1,38.3-20.5c0,0.2-0.1,0.5-0.1,0.7c0.1,1.7,0.9,3.8,2.6,4.5
			c8.6,3.8,19.7,4.1,25.3-4.7c4.8-7.5,2.2-17.8-6.8-20.2c-4.4-1.2-9.1,0.4-12,3.4c-0.7,0.1-1.4,0.3-2,1c-3.1,2.6-5.2,6.1-6.2,9.9
			c-15.3,1-30.8,8.9-40.3,21c-0.8-4.3-2.8-8.2-6.9-10.8c20.1-62.2,63.3-124.5,133.5-132.9c18.8-2.3,39.8-1.3,54.3,13.6
			c17.5,18.1,10.2,44.9,13,66.5C5088.4,192,5095.2,207.5,5107.1,222.4z"/>
		<linearGradient id="SVGID_32_" gradientUnits="userSpaceOnUse" x1="4901.8237" y1="295.6771" x2="5068.8125" y2="439.3138">
			<stop  offset="0" style="stop-color:#EE827C"/>
			<stop  offset="0.3746" style="stop-color:#F19A97"/>
			<stop  offset="0.7478" style="stop-color:#F4ACAB"/>
			<stop  offset="1" style="stop-color:#F5B2B2"/>
		</linearGradient>
		<path class="st45" d="M5080.1,327.1c18.6,37.1-20.5,52.4-36.5,75.9c-9.5,13.9-13.5,27.3-11.9,43.1c-10.3,29.5-55.7,27.6-80,15.4
			c-21.6-10.8-39.1-28.5-51.8-48.8c-24.8-39.6-29.7-86.9-35.1-132.2c4.3,0.3,8.1-1.3,11.3-4c0.7,16.6,9.6,33,23.2,42.5
			c-0.8,1.4-1.2,2.9-1.2,4.7c0.1,1.6,0.7,2.9,1.6,3.8c0.4,2.3,1.4,4.5,3.1,6.1c5.4,5.4,13.9,3.3,17.5-3.1c3.5-6.4,0.8-14.8-6.5-16.9
			c-3.1-0.9-6.6-0.4-9.6,1c-13.5-10.2-21.4-24.2-23.1-41.8c-0.1-0.4-0.2-0.8-0.3-1.2c0.4-0.5,0.8-1.2,1.2-1.8
			c10.4,9.5,23.7,15.7,37.5,18.6c-0.7,1.2-0.8,2.6,0.1,3.8c1.2,1.8,2.8,3.1,4.6,4c1.2,0.8,2.3,1.2,3.5,1.1c2.8,0.4,5.7-0.1,8.3-1.8
			c5.9-3.8,7.2-12.1,3.5-17.8c-3.9-5.9-12.4-3.7-16.2,1c-1.1,1.3-1.9,2.7-2.5,4.2c-13.4-2.5-25.3-7.8-36.7-15.7c-0.1,0-0.1,0-0.1,0
			c1.7-2.8,3.3-5.6,4.4-8.1c0.2-0.6,0.5-1.2,0.8-1.8c0.4,0.3,0.9,0.5,1.5,0.5c35.3,1,70.3,4.6,104.1,15.8c12.4,4.2,27.6,9.4,42,16.5
			c0.4,0.4,0.9,0.7,1.5,0.8C5055.8,299.9,5072.3,311.6,5080.1,327.1z"/>
		<linearGradient id="SVGID_33_" gradientUnits="userSpaceOnUse" x1="4862.21" y1="190.4946" x2="4806.7051" y2="-40.1152">
			<stop  offset="0" style="stop-color:#EE827C"/>
			<stop  offset="0.3746" style="stop-color:#F19A97"/>
			<stop  offset="0.7478" style="stop-color:#F4ACAB"/>
			<stop  offset="1" style="stop-color:#F5B2B2"/>
		</linearGradient>
		<path class="st46" d="M4926,25c30.8,19.7,32,58.5,20.4,89.5c-34.3,27.2-59,68.3-66,109.9c-1,0.5-1.8,1.4-2.1,2.4
			c-2.5-0.5-4.8-0.1-7.2,0.5c-4.2-23.7-4.4-47.1-2.5-71c0.5-0.1,1.2-0.1,1.8-0.3c9.1-3.5,10.3-16.9,2.5-22.4
			c-8.3-5.9-22,0.7-20.1,11.3c0.2,1.2,0.8,2,1.4,2.6c1.2,4.4,5,7.9,9.6,8.9c-2.5,24.2-0.5,48.2,4.6,71.9c-1.4,0.7-2.7,1.6-4,2.5
			c-17.6-22-28.5-45.5-32.4-73.4c6-1,10.6-8.3,8.7-14.4c-2.6-9.1-15-10.7-21.3-4.6c-3.5,3.3-4.8,9.3-1.2,13.1
			c1.5,1.5,3.3,2.3,5.3,2.3c0.4,0.5,0.8,1,1.3,1.4c1.1,15.3,4.8,30.4,11.1,44.4c-14-13.2-30.4-24.2-46.3-34.2
			c-4.2-2.7-8.6-5.3-13-7.8c-37.3-28.2-88.3-75.3-42.2-118.5c35.4-33.2,79.4-7.6,120.1-13.8c8.5,1,14.7-1.5,23.6-4.5
			C4894.9,15.3,4910.2,14.9,4926,25z"/>
		<linearGradient id="SVGID_34_" gradientUnits="userSpaceOnUse" x1="4832.9512" y1="321.5346" x2="4795.8354" y2="505.7673">
			<stop  offset="0" style="stop-color:#EE827C"/>
			<stop  offset="0.3746" style="stop-color:#F19A97"/>
			<stop  offset="0.7478" style="stop-color:#F4ACAB"/>
			<stop  offset="1" style="stop-color:#F5B2B2"/>
		</linearGradient>
		<path class="st47" d="M4904.8,435c3.8,45.1-46.9,60.9-79.8,38.1c-0.8-0.5-1.7-0.3-2.4,0.1c-6.8-2.8-14.1-3.8-22.7-4.4
			c-44.8-3.4-102.4-13.9-76.4-75.4c6.2-14.7,15.2-28.2,25.9-40.9c1.8-0.3,2.8-1.8,2.8-3.3c19.6-22.2,44.5-41.1,69.3-56.8
			c-13.8,11.2-24.8,25.2-29.1,42.2c-7.3,1.8-13.7,9.2-10.6,16.9c0.8,2,2.2,3.1,3.8,3.6c3.8,5.6,12.4,6.1,17.7,0.7
			c6.1-6.3,5.1-17.2-2.7-20.6c8.9-26,29.9-40.3,52.3-55c-14.4,18.6-22.9,42.9-21.2,66.5c-3.3,1.2-6.3,3.6-7.9,6.8
			c-2,3.9-2.1,9.3,1.4,12.4c2,1.7,4.3,2.3,6.6,2.1c0.9,0.3,1.8,0.5,2.8,0.5c4.6-0.1,8.4-3.6,10.4-7.6c0.9-1.8,1.7-3.8,2.1-5.7
			c0.7-3.2-1-5.7-3.6-7.5c-1.3-0.9-2.7-1.4-4.2-1.6c0.5-22.9,5.3-42.6,17.9-62.2C4862,336.4,4871,394.1,4904.8,435z"/>
		<linearGradient id="SVGID_35_" gradientUnits="userSpaceOnUse" x1="4819.5659" y1="253.8488" x2="4617.5669" y2="242.7278">
			<stop  offset="0" style="stop-color:#EE827C"/>
			<stop  offset="0.3746" style="stop-color:#F19A97"/>
			<stop  offset="0.7478" style="stop-color:#F4ACAB"/>
			<stop  offset="1" style="stop-color:#F5B2B2"/>
		</linearGradient>
		<path class="st48" d="M4856.9,239.1c-0.4,0.6-0.8,1.2-1.1,1.8c-19.2-19.4-46.3-34.3-73.6-39.5c0.3-1.9,0.5-3.8,0.1-5.8
			c-0.4-1.9-2.3-3.7-4.1-4.1c-6.3-1.5-13.1-2.6-19.2,0.3c-5.4,2.5-9,7.6-9.1,13.7c0,2.9,2,4.8,4.4,5.8c2.9,1.2,5.5,1.9,8.5,2.2
			c0.9,0.1,1.6-0.1,2.2-0.3c5.9,1.6,11.2-0.8,14.4-5.1c27.6,8.1,50.8,18.9,74.5,36.3c-0.7,1.4-1.2,2.9-1.7,4.3
			c-25.7-4.1-53.5-2.3-79.4,2.5c-0.2-0.4-0.3-0.8-0.5-1.2c-5-7.6-16.6-9.5-22.4-1.9c-5.9,7.5-2.7,19.6,6.6,22.4c2,0.6,3.6,0,4.8-1
			c1.1-0.1,2.2-0.1,3.2-0.4c5.1-1.3,8.7-5.5,9.6-10.1c25.7-3.6,50.8-4.7,76.8-5.9c-1.5,6-1.6,12.1,0.2,17c-0.5-0.1-1.2-0.1-1.8,0.1
			c-35,14.8-79.4,42-109.4,76.4c-28.9,1.8-65,6.7-88-11c-18.5-14.3-16.9-33-11.4-53.4c0.8-2.7,1.2-5,1.5-7.4
			c1.1,0.1,2.3-0.5,2.4-1.8c2.5-21.6-6.5-37.9-10.1-58.6c-8.7-50.4,37.5-72.8,81.8-67.3C4765.8,153.2,4832.6,195,4856.9,239.1z"/>
		<path class="st17" d="M4933.1,267.1c-37.5,20.7-54.5,65.9-73.5,103.4c-28.8-26.4-59.3-51.3-94.2-69.3c-5.7-2.9-12,4.4-7.1,9.2
			c31,30.4,65,57.6,96.2,87.7c5.5,5.3,14.7,4.3,18.6-2.4c23.2-40.1,40.9-77.6,73.2-111.5C4954.7,275.2,4944,261,4933.1,267.1z"/>
		<path class="st17" d="M5014.6,413c-43.1-14-83.9-25.8-129.9-18.7c-9.9,1.5-6.2,15.2,2.2,16.2c24.7,2.7,49.1,4.9,73.4,10.8
			c16,3.9,34.9,15.1,51.2,15.4C5025.4,437,5027.3,417.2,5014.6,413z"/>
		<path class="st18" d="M5110.9,220.7c7.8,13.8,4.4,30.2-5.6,43.1c-11.8,15.4-32.5,22.8-52.2,25.7c9.2,6.2,17.7,13.1,24.9,21
			c11.4,12.5,22.8,32.5,15.6,49.9c-4.4,10.6-16.6,18-24.5,25.5c-18.5,17.8-32.3,38-31,64.8c0.1,1.8-1.4,2.8-3,2.9
			c-8.4,38.1-74.6,25.5-100.7,8.2c-8.1-5.4-15.3-11.5-21.8-18c-1.9,38.8-44.1,55.8-77,41c-0.6,0.5-1.4,0.8-2.1,0.3
			c-31-19.6-72.1-0.1-103.8-22.3c-17.9-12.5-25.9-31.9-22.4-53.4c3.3-19.9,13.1-38.6,26.7-55.8c-29.3,2.2-63.3,5.2-86.7-12.6
			c-9.6-7.2-17.3-17.8-18.8-30c-2.4-18.5,11.9-33.5,10.1-52c-0.1-0.5,0.1-0.8,0.3-1c-5.1-27.2-21.7-54.8-10.6-81.6
			c10-24.1,37-36.8,61.3-39.8c19.2-2.4,37.7,0.6,55.3,6.8c-26.7-22.4-46.3-52.8-32.5-88.4c25.1-65.4,101.1-29.3,149.4-36.7
			c1.3-0.2,2.3,0.4,2.9,1.3c13.4-3,26.2-11.2,40.9-9.3c13.2,1.7,26.1,8.3,35.6,17.5c21.4,20.7,24,51.3,16.5,78.7
			c17.9-11.7,37.8-19.8,59-22.4c24.1-3.1,52.6,1.4,67,23.2c6.6,10,7.8,21.4,8.6,33c2.2,31.4,1.3,52.1,18.1,80
			C5110.9,220.4,5110.9,220.6,5110.9,220.7z M5089.7,269.6c15-10.2,23.8-29.9,17.3-47.1c-11.9-14.9-18.6-30.4-21-49.7
			c-2.7-21.6,4.6-48.4-13-66.5c-14.5-14.9-35.5-15.8-54.3-13.6c-70.2,8.4-113.5,70.7-133.5,132.9c4.1,2.7,6.1,6.6,6.9,10.8
			c9.5-12.1,25-20,40.3-21c1-3.8,3.1-7.3,6.2-9.9c0.7-0.6,1.4-0.8,2-1c2.9-3,7.6-4.6,12-3.4c9,2.4,11.7,12.7,6.8,20.2
			c-5.7,8.8-16.7,8.5-25.3,4.7c-1.7-0.8-2.5-2.8-2.6-4.5c0-0.2,0.1-0.5,0.1-0.7c-15.4,2.5-27.2,9.2-38.3,20.5
			c-0.3,0.3-0.5,0.4-0.8,0.5c-0.1,3.5-0.8,7.1-1.8,10.5c47.6-3.5,108.6,5.2,153.7,31.7C5060.1,280.7,5075.9,279,5089.7,269.6z
			 M5043.6,403c16-23.5,55.1-38.8,36.5-75.9c-7.8-15.6-24.3-27.3-42.2-36.2c-0.6-0.1-1.1-0.3-1.5-0.8c-14.4-7.1-29.6-12.4-42-16.5
			c-33.7-11.3-68.7-14.9-104.1-15.8c-0.6,0-1.1-0.2-1.5-0.5c-0.3,0.6-0.5,1.2-0.8,1.8c-1.2,2.5-2.7,5.3-4.4,8.1c0,0,0.1,0,0.1,0
			c11.4,7.8,23.3,13.2,36.7,15.7c0.5-1.5,1.4-2.9,2.5-4.2c3.9-4.6,12.4-6.9,16.2-1c3.8,5.7,2.5,14.1-3.5,17.8
			c-2.5,1.6-5.5,2.2-8.3,1.8c-1.2,0.1-2.3-0.3-3.5-1.1c-1.8-0.9-3.4-2.2-4.6-4c-0.8-1.2-0.8-2.7-0.1-3.8c-13.8-2.9-27-9.1-37.5-18.6
			c-0.5,0.6-0.8,1.3-1.2,1.8c0.1,0.3,0.3,0.8,0.3,1.2c1.8,17.6,9.6,31.5,23.1,41.8c3-1.4,6.5-1.9,9.6-1c7.3,2.1,10,10.5,6.5,16.9
			c-3.5,6.4-12.1,8.5-17.5,3.1c-1.6-1.6-2.7-3.8-3.1-6.1c-0.9-0.9-1.5-2.1-1.6-3.8c-0.1-1.8,0.3-3.3,1.2-4.7
			c-13.6-9.6-22.5-25.9-23.2-42.5c-3.2,2.7-7,4.4-11.3,4c5.4,45.3,10.3,92.6,35.1,132.2c12.7,20.3,30.2,38,51.8,48.8
			c24.3,12.1,69.7,14.1,80-15.4C5030.1,430.3,5034.1,416.9,5043.6,403z M4946.4,114.5c11.6-31,10.4-69.9-20.4-89.5
			c-15.8-10.1-31-9.7-48-4c-8.9,3-15.1,5.5-23.6,4.5c-40.7,6.2-84.7-19.4-120.1,13.8c-46.1,43.2,4.9,90.2,42.2,118.5
			c4.4,2.5,8.8,5,13,7.8c15.9,10,32.3,21,46.3,34.2c-6.3-14.1-10-29.1-11.1-44.4c-0.5-0.4-0.9-0.9-1.3-1.4c-1.9,0-3.8-0.8-5.3-2.3
			c-3.7-3.8-2.3-9.8,1.2-13.1c6.3-6.1,18.7-4.5,21.3,4.6c1.8,6.1-2.7,13.4-8.7,14.4c4,27.9,14.8,51.4,32.4,73.4c1.3-1,2.6-1.8,4-2.5
			c-5.1-23.7-7.1-47.8-4.6-71.9c-4.5-1-8.3-4.5-9.6-8.9c-0.7-0.6-1.2-1.4-1.4-2.6c-1.9-10.6,11.9-17.2,20.1-11.3
			c7.8,5.5,6.7,19-2.5,22.4c-0.6,0.2-1.2,0.2-1.8,0.3c-2,23.8-1.7,47.3,2.5,71c2.3-0.7,4.7-1,7.2-0.5c0.3-1,1.1-1.9,2.1-2.4
			C4887.4,182.8,4912,141.7,4946.4,114.5z M4825.1,473.1c32.9,22.8,83.5,7,79.8-38.1c-33.8-40.9-42.9-98.7-47.6-151.3
			c-12.6,19.6-17.4,39.3-17.9,62.2c1.5,0.3,2.9,0.8,4.2,1.6c2.6,1.8,4.3,4.3,3.6,7.5c-0.4,1.9-1.2,4-2.1,5.7c-2,4-5.7,7.4-10.4,7.6
			c-1,0-1.9-0.2-2.8-0.5c-2.3,0.2-4.6-0.4-6.6-2.1c-3.5-3.1-3.3-8.5-1.4-12.4c1.6-3.1,4.6-5.5,7.9-6.8c-1.6-23.6,6.8-47.9,21.2-66.5
			c-22.4,14.7-43.5,29-52.3,55c7.8,3.4,8.7,14.3,2.7,20.6c-5.3,5.4-13.9,4.9-17.7-0.7c-1.6-0.5-2.9-1.6-3.8-3.6
			c-3.1-7.6,3.3-15,10.6-16.9c4.2-17,15.3-31,29.1-42.2c-24.8,15.8-49.7,34.7-69.3,56.8c0,1.5-1,3-2.8,3.3
			c-10.7,12.6-19.7,26.2-25.9,40.9c-26.1,61.5,31.6,72,76.4,75.4c8.7,0.7,16,1.6,22.7,4.4C4823.3,472.8,4824.2,472.6,4825.1,473.1z
			 M4882,252.8c3.1-7.7,4-14.3-1-20.5c-0.4,0.2-0.9,0.3-1.4,0.3c-10.2-1.2-15.7,10-18.8,17.9c-1.4,3.8-3.1,8.1-2.8,12.3
			c0.5,6.2,5.7,11.7,12.1,8.1C4875.9,267.6,4879.6,258.7,4882,252.8z M4855.8,241c0.3-0.6,0.7-1.2,1.1-1.8
			c-24.4-44.1-91.2-86-140.6-92.1c-44.4-5.5-90.5,17-81.8,67.3c3.5,20.7,12.6,37,10.1,58.6c-0.1,1.4-1.3,2-2.4,1.8
			c-0.3,2.3-0.8,4.7-1.5,7.4c-5.5,20.3-7.1,39.1,11.4,53.4c23,17.7,59,12.8,88,11c30-34.4,74.4-61.5,109.4-76.4
			c0.6-0.3,1.2-0.3,1.8-0.1c-1.8-4.9-1.7-11-0.2-17c-26,1.2-51.1,2.3-76.8,5.9c-0.9,4.6-4.5,8.8-9.6,10.1c-1,0.3-2.1,0.3-3.2,0.4
			c-1.2,1-2.8,1.6-4.8,1c-9.3-2.8-12.6-14.9-6.6-22.4c5.9-7.6,17.5-5.7,22.4,1.9c0.3,0.3,0.3,0.8,0.5,1.2
			c25.9-4.8,53.7-6.6,79.4-2.5c0.5-1.4,1-2.9,1.7-4.3c-23.7-17.4-46.9-28.2-74.5-36.3c-3.2,4.4-8.5,6.8-14.4,5.1
			c-0.6,0.3-1.3,0.4-2.2,0.3c-3.1-0.3-5.7-1-8.5-2.2c-2.5-1-4.4-2.9-4.4-5.8c0.1-6.1,3.7-11.2,9.1-13.7c6.1-2.9,12.9-1.8,19.2-0.3
			c1.8,0.4,3.7,2.2,4.1,4.1c0.3,2,0.2,3.9-0.1,5.8C4809.5,206.6,4836.7,221.6,4855.8,241z"/>
	</g>
</g>
</svg>
